<mxfile host="app.diagrams.net" modified="2023-09-11T19:46:51.492Z" agent="Mozilla/5.0 (Windows NT 10.0; Win64; x64) AppleWebKit/537.36 (KHTML, like Gecko) Chrome/116.0.0.0 Safari/537.36" etag="2sQYptrzu0Tm2IsFGoWJ" version="21.7.4" type="github">
  <diagram name="Страница — 1" id="to-tD6BpEfC54OX2dzKl">
    <mxGraphModel dx="2744" dy="843" grid="1" gridSize="10" guides="1" tooltips="1" connect="1" arrows="1" fold="1" page="1" pageScale="1" pageWidth="827" pageHeight="1169" math="0" shadow="0">
      <root>
        <mxCell id="0" />
        <mxCell id="1" parent="0" />
        <mxCell id="xNPvfq1fxMJgjm_zQKp6-1" value="" style="edgeStyle=none;rounded=0;jumpStyle=none;html=1;shadow=0;labelBackgroundColor=none;startArrow=none;startFill=0;endArrow=classic;endFill=1;jettySize=auto;orthogonalLoop=1;strokeColor=#2F5B7C;strokeWidth=3;fontFamily=Helvetica;fontSize=16;fontColor=#23445D;spacing=5;" edge="1" parent="1" source="xNPvfq1fxMJgjm_zQKp6-5" target="xNPvfq1fxMJgjm_zQKp6-8">
          <mxGeometry relative="1" as="geometry" />
        </mxCell>
        <mxCell id="xNPvfq1fxMJgjm_zQKp6-2" value="" style="edgeStyle=none;rounded=0;jumpStyle=none;html=1;shadow=0;labelBackgroundColor=none;startArrow=none;startFill=0;endArrow=classic;endFill=1;jettySize=auto;orthogonalLoop=1;strokeColor=#2F5B7C;strokeWidth=3;fontFamily=Helvetica;fontSize=16;fontColor=#23445D;spacing=5;" edge="1" parent="1" source="xNPvfq1fxMJgjm_zQKp6-5" target="xNPvfq1fxMJgjm_zQKp6-9">
          <mxGeometry relative="1" as="geometry" />
        </mxCell>
        <mxCell id="xNPvfq1fxMJgjm_zQKp6-3" value="" style="edgeStyle=none;rounded=0;jumpStyle=none;html=1;shadow=0;labelBackgroundColor=none;startArrow=none;startFill=0;endArrow=classic;endFill=1;jettySize=auto;orthogonalLoop=1;strokeColor=#2F5B7C;strokeWidth=3;fontFamily=Helvetica;fontSize=16;fontColor=#23445D;spacing=5;" edge="1" parent="1" source="xNPvfq1fxMJgjm_zQKp6-5" target="xNPvfq1fxMJgjm_zQKp6-7">
          <mxGeometry relative="1" as="geometry" />
        </mxCell>
        <mxCell id="xNPvfq1fxMJgjm_zQKp6-4" value="" style="edgeStyle=none;rounded=0;jumpStyle=none;html=1;shadow=0;labelBackgroundColor=none;startArrow=none;startFill=0;endArrow=classic;endFill=1;jettySize=auto;orthogonalLoop=1;strokeColor=#2F5B7C;strokeWidth=3;fontFamily=Helvetica;fontSize=16;fontColor=#23445D;spacing=5;" edge="1" parent="1" source="xNPvfq1fxMJgjm_zQKp6-5" target="xNPvfq1fxMJgjm_zQKp6-6">
          <mxGeometry relative="1" as="geometry" />
        </mxCell>
        <mxCell id="xNPvfq1fxMJgjm_zQKp6-5" value="Потреба в постійному доступі до їжі, особистій безпеці для отримання інформації щоб підтримувати зацікавленість живописом" style="rounded=1;whiteSpace=wrap;html=1;shadow=0;labelBackgroundColor=none;strokeColor=none;strokeWidth=3;fillColor=#2F5B7C;fontFamily=Helvetica;fontSize=16;fontColor=#FFFFFF;align=center;fontStyle=1;spacing=5;arcSize=7;perimeterSpacing=2;" vertex="1" parent="1">
          <mxGeometry x="660" y="480" width="380" height="160" as="geometry" />
        </mxCell>
        <mxCell id="xNPvfq1fxMJgjm_zQKp6-6" value="отримання інформації" style="rounded=1;whiteSpace=wrap;html=1;shadow=0;labelBackgroundColor=none;strokeColor=none;strokeWidth=3;fillColor=#e85642;fontFamily=Helvetica;fontSize=14;fontColor=#FFFFFF;align=center;spacing=5;fontStyle=1;arcSize=7;perimeterSpacing=2;" vertex="1" parent="1">
          <mxGeometry x="432" y="520" width="148" height="79" as="geometry" />
        </mxCell>
        <mxCell id="xNPvfq1fxMJgjm_zQKp6-7" value="особиста безпека" style="rounded=1;whiteSpace=wrap;html=1;shadow=0;labelBackgroundColor=none;strokeColor=none;strokeWidth=3;fillColor=#1699d3;fontFamily=Helvetica;fontSize=14;fontColor=#FFFFFF;align=center;spacing=5;fontStyle=1;arcSize=7;perimeterSpacing=2;" vertex="1" parent="1">
          <mxGeometry x="770" y="676" width="160" height="74" as="geometry" />
        </mxCell>
        <mxCell id="xNPvfq1fxMJgjm_zQKp6-8" value="зацікавленість живописом" style="rounded=1;whiteSpace=wrap;html=1;shadow=0;labelBackgroundColor=none;strokeColor=none;strokeWidth=3;fillColor=#F08705;fontFamily=Helvetica;fontSize=14;fontColor=#FFFFFF;align=center;spacing=5;fontStyle=1;arcSize=7;perimeterSpacing=2;" vertex="1" parent="1">
          <mxGeometry x="769" y="360.5" width="160" height="73" as="geometry" />
        </mxCell>
        <mxCell id="xNPvfq1fxMJgjm_zQKp6-9" value="їжа" style="rounded=1;whiteSpace=wrap;html=1;shadow=0;labelBackgroundColor=none;strokeColor=none;strokeWidth=3;fillColor=#12aab5;fontFamily=Helvetica;fontSize=14;fontColor=#FFFFFF;align=center;spacing=5;fontStyle=1;arcSize=7;perimeterSpacing=2;" vertex="1" parent="1">
          <mxGeometry x="1140" y="520" width="147" height="80" as="geometry" />
        </mxCell>
        <mxCell id="xNPvfq1fxMJgjm_zQKp6-10" value="Як?" style="rounded=1;whiteSpace=wrap;html=1;shadow=0;labelBackgroundColor=none;strokeColor=none;strokeWidth=3;fillColor=#61c6ce;fontFamily=Helvetica;fontSize=14;fontColor=#FFFFFF;align=center;spacing=5;fontStyle=0;arcSize=7;perimeterSpacing=2;" vertex="1" parent="1">
          <mxGeometry x="1317" y="791" width="69" height="60" as="geometry" />
        </mxCell>
        <mxCell id="xNPvfq1fxMJgjm_zQKp6-11" value="" style="edgeStyle=none;rounded=1;jumpStyle=none;html=1;shadow=0;labelBackgroundColor=none;startArrow=none;startFill=0;jettySize=auto;orthogonalLoop=1;strokeColor=#12AAB5;strokeWidth=3;fontFamily=Helvetica;fontSize=14;fontColor=#FFFFFF;spacing=5;fontStyle=1;fillColor=#b0e3e6;exitX=0.5;exitY=1;exitDx=0;exitDy=0;" edge="1" parent="1" source="xNPvfq1fxMJgjm_zQKp6-9" target="xNPvfq1fxMJgjm_zQKp6-10">
          <mxGeometry relative="1" as="geometry">
            <mxPoint x="1289" y="635" as="targetPoint" />
          </mxGeometry>
        </mxCell>
        <mxCell id="xNPvfq1fxMJgjm_zQKp6-12" value="Коли?" style="rounded=1;whiteSpace=wrap;html=1;shadow=0;labelBackgroundColor=none;strokeColor=none;strokeWidth=3;fillColor=#61c6ce;fontFamily=Helvetica;fontSize=14;fontColor=#FFFFFF;align=center;spacing=5;fontStyle=0;arcSize=7;perimeterSpacing=2;direction=south;" vertex="1" parent="1">
          <mxGeometry x="1327.75" y="620.75" width="65.5" height="60.25" as="geometry" />
        </mxCell>
        <mxCell id="xNPvfq1fxMJgjm_zQKp6-13" value="" style="edgeStyle=none;rounded=1;jumpStyle=none;html=1;shadow=0;labelBackgroundColor=none;startArrow=none;startFill=0;jettySize=auto;orthogonalLoop=1;strokeColor=#12AAB5;strokeWidth=3;fontFamily=Helvetica;fontSize=14;fontColor=#FFFFFF;spacing=5;fontStyle=1;fillColor=#b0e3e6;exitX=1;exitY=1;exitDx=0;exitDy=0;" edge="1" parent="1" source="xNPvfq1fxMJgjm_zQKp6-9" target="xNPvfq1fxMJgjm_zQKp6-12">
          <mxGeometry relative="1" as="geometry" />
        </mxCell>
        <mxCell id="xNPvfq1fxMJgjm_zQKp6-14" value="Де?" style="rounded=1;whiteSpace=wrap;html=1;shadow=0;labelBackgroundColor=none;strokeColor=none;strokeWidth=3;fillColor=#61c6ce;fontFamily=Helvetica;fontSize=14;fontColor=#FFFFFF;align=center;spacing=5;fontStyle=0;arcSize=7;perimeterSpacing=2;" vertex="1" parent="1">
          <mxGeometry x="1326" y="411" width="69" height="52" as="geometry" />
        </mxCell>
        <mxCell id="xNPvfq1fxMJgjm_zQKp6-15" value="" style="edgeStyle=none;rounded=1;jumpStyle=none;html=1;shadow=0;labelBackgroundColor=none;startArrow=none;startFill=0;jettySize=auto;orthogonalLoop=1;strokeColor=#12AAB5;strokeWidth=3;fontFamily=Helvetica;fontSize=14;fontColor=#FFFFFF;spacing=5;fontStyle=1;fillColor=#b0e3e6;" edge="1" parent="1" target="xNPvfq1fxMJgjm_zQKp6-14">
          <mxGeometry relative="1" as="geometry">
            <mxPoint x="1280" y="530" as="sourcePoint" />
          </mxGeometry>
        </mxCell>
        <mxCell id="xNPvfq1fxMJgjm_zQKp6-16" value="Що?" style="rounded=1;whiteSpace=wrap;html=1;shadow=0;labelBackgroundColor=none;strokeColor=none;strokeWidth=3;fillColor=#61c6ce;fontFamily=Helvetica;fontSize=14;fontColor=#FFFFFF;align=center;spacing=5;fontStyle=0;arcSize=7;perimeterSpacing=2;" vertex="1" parent="1">
          <mxGeometry x="1313" y="280" width="73" height="60" as="geometry" />
        </mxCell>
        <mxCell id="xNPvfq1fxMJgjm_zQKp6-17" value="" style="edgeStyle=none;rounded=1;jumpStyle=none;html=1;shadow=0;labelBackgroundColor=none;startArrow=none;startFill=0;jettySize=auto;orthogonalLoop=1;strokeColor=#12AAB5;strokeWidth=3;fontFamily=Helvetica;fontSize=14;fontColor=#FFFFFF;spacing=5;fontStyle=1;fillColor=#b0e3e6;exitX=0.5;exitY=0;exitDx=0;exitDy=0;" edge="1" parent="1" source="xNPvfq1fxMJgjm_zQKp6-9" target="xNPvfq1fxMJgjm_zQKp6-16">
          <mxGeometry relative="1" as="geometry">
            <mxPoint x="1223" y="507" as="sourcePoint" />
          </mxGeometry>
        </mxCell>
        <mxCell id="xNPvfq1fxMJgjm_zQKp6-18" value="Приходить" style="rounded=1;whiteSpace=wrap;html=1;shadow=0;fillColor=#DEF5EB;fontFamily=Helvetica;fontSize=14;fontColor=#000000;align=center;spacing=5;fontStyle=0;arcSize=7;perimeterSpacing=2;" vertex="1" parent="1">
          <mxGeometry x="1429" y="158.5" width="82" height="60" as="geometry" />
        </mxCell>
        <mxCell id="xNPvfq1fxMJgjm_zQKp6-19" value="Обробляється" style="rounded=1;whiteSpace=wrap;html=1;shadow=0;fillColor=#DEF5EB;fontFamily=Helvetica;fontSize=14;fontColor=#000000;align=center;spacing=5;fontStyle=0;arcSize=7;perimeterSpacing=2;" vertex="1" parent="1">
          <mxGeometry x="1525" y="160.5" width="106" height="60" as="geometry" />
        </mxCell>
        <mxCell id="xNPvfq1fxMJgjm_zQKp6-20" value="Виходить" style="rounded=1;whiteSpace=wrap;html=1;shadow=0;fillColor=#DEF5EB;fontFamily=Helvetica;fontSize=14;fontColor=#000000;align=center;spacing=5;fontStyle=0;arcSize=7;perimeterSpacing=2;" vertex="1" parent="1">
          <mxGeometry x="1453" y="279" width="84" height="60" as="geometry" />
        </mxCell>
        <mxCell id="xNPvfq1fxMJgjm_zQKp6-21" value="" style="edgeStyle=none;rounded=1;jumpStyle=none;html=1;shadow=0;labelBackgroundColor=none;startArrow=none;startFill=0;jettySize=auto;orthogonalLoop=1;strokeColor=#12AAB5;strokeWidth=3;fontFamily=Helvetica;fontSize=14;fontColor=#FFFFFF;spacing=5;fontStyle=1;fillColor=#b0e3e6;" edge="1" parent="1" source="xNPvfq1fxMJgjm_zQKp6-16" target="xNPvfq1fxMJgjm_zQKp6-18">
          <mxGeometry relative="1" as="geometry">
            <mxPoint x="1475" y="310" as="sourcePoint" />
            <mxPoint x="1523" y="239.9999999999999" as="targetPoint" />
          </mxGeometry>
        </mxCell>
        <mxCell id="xNPvfq1fxMJgjm_zQKp6-22" value="" style="edgeStyle=none;rounded=1;jumpStyle=none;html=1;shadow=0;labelBackgroundColor=none;startArrow=none;startFill=0;jettySize=auto;orthogonalLoop=1;strokeColor=#12AAB5;strokeWidth=3;fontFamily=Helvetica;fontSize=14;fontColor=#FFFFFF;spacing=5;fontStyle=1;fillColor=#b0e3e6;entryX=0.367;entryY=0.976;entryDx=0;entryDy=0;entryPerimeter=0;exitX=1;exitY=0.25;exitDx=0;exitDy=0;" edge="1" parent="1" source="xNPvfq1fxMJgjm_zQKp6-16" target="xNPvfq1fxMJgjm_zQKp6-19">
          <mxGeometry relative="1" as="geometry">
            <mxPoint x="1536" y="313" as="sourcePoint" />
            <mxPoint x="1604.6925086139822" y="250.9999999999999" as="targetPoint" />
          </mxGeometry>
        </mxCell>
        <mxCell id="xNPvfq1fxMJgjm_zQKp6-23" value="" style="edgeStyle=none;rounded=1;jumpStyle=none;html=1;shadow=0;labelBackgroundColor=none;startArrow=none;startFill=0;jettySize=auto;orthogonalLoop=1;strokeColor=#12AAB5;strokeWidth=3;fontFamily=Helvetica;fontSize=14;fontColor=#FFFFFF;spacing=5;fontStyle=1;fillColor=#b0e3e6;exitX=1;exitY=0.5;exitDx=0;exitDy=0;entryX=0;entryY=0.5;entryDx=0;entryDy=0;" edge="1" parent="1" source="xNPvfq1fxMJgjm_zQKp6-16" target="xNPvfq1fxMJgjm_zQKp6-20">
          <mxGeometry relative="1" as="geometry">
            <mxPoint x="1159" y="386" as="sourcePoint" />
            <mxPoint x="1262" y="400.12345679012344" as="targetPoint" />
          </mxGeometry>
        </mxCell>
        <mxCell id="xNPvfq1fxMJgjm_zQKp6-24" value="Коли?" style="rounded=1;whiteSpace=wrap;html=1;shadow=0;labelBackgroundColor=none;strokeColor=none;strokeWidth=3;fillColor=#f5af58;fontFamily=Helvetica;fontSize=14;fontColor=#FFFFFF;align=center;spacing=5;arcSize=7;perimeterSpacing=2;" vertex="1" parent="1">
          <mxGeometry x="874" y="270" width="75" height="60" as="geometry" />
        </mxCell>
        <mxCell id="xNPvfq1fxMJgjm_zQKp6-25" value="" style="edgeStyle=none;rounded=0;jumpStyle=none;html=1;shadow=0;labelBackgroundColor=none;startArrow=none;startFill=0;endArrow=classic;endFill=1;jettySize=auto;orthogonalLoop=1;strokeColor=#F08705;strokeWidth=3;fontFamily=Helvetica;fontSize=14;fontColor=#FFFFFF;spacing=5;" edge="1" parent="1" source="xNPvfq1fxMJgjm_zQKp6-8" target="xNPvfq1fxMJgjm_zQKp6-24">
          <mxGeometry relative="1" as="geometry">
            <mxPoint x="878" y="376" as="sourcePoint" />
          </mxGeometry>
        </mxCell>
        <mxCell id="xNPvfq1fxMJgjm_zQKp6-26" value="Що?" style="rounded=1;whiteSpace=wrap;html=1;shadow=0;labelBackgroundColor=none;strokeColor=none;strokeWidth=3;fillColor=#f5af58;fontFamily=Helvetica;fontSize=14;fontColor=#FFFFFF;align=center;spacing=5;arcSize=7;perimeterSpacing=2;" vertex="1" parent="1">
          <mxGeometry x="489" y="368" width="80" height="60" as="geometry" />
        </mxCell>
        <mxCell id="xNPvfq1fxMJgjm_zQKp6-27" value="" style="edgeStyle=none;rounded=0;jumpStyle=none;html=1;shadow=0;labelBackgroundColor=none;startArrow=none;startFill=0;endArrow=classic;endFill=1;jettySize=auto;orthogonalLoop=1;strokeColor=#F08705;strokeWidth=3;fontFamily=Helvetica;fontSize=14;fontColor=#FFFFFF;spacing=5;exitX=0;exitY=0.5;exitDx=0;exitDy=0;" edge="1" parent="1" source="xNPvfq1fxMJgjm_zQKp6-8" target="xNPvfq1fxMJgjm_zQKp6-26">
          <mxGeometry relative="1" as="geometry">
            <mxPoint x="779" y="413" as="sourcePoint" />
          </mxGeometry>
        </mxCell>
        <mxCell id="xNPvfq1fxMJgjm_zQKp6-28" value="Як?" style="rounded=1;whiteSpace=wrap;html=1;shadow=0;labelBackgroundColor=none;strokeColor=none;strokeWidth=3;fillColor=#f5af58;fontFamily=Helvetica;fontSize=14;fontColor=#FFFFFF;align=center;spacing=5;arcSize=7;perimeterSpacing=2;" vertex="1" parent="1">
          <mxGeometry x="1096" y="367" width="70" height="60" as="geometry" />
        </mxCell>
        <mxCell id="xNPvfq1fxMJgjm_zQKp6-29" value="" style="edgeStyle=none;rounded=0;jumpStyle=none;html=1;shadow=0;labelBackgroundColor=none;startArrow=none;startFill=0;endArrow=classic;endFill=1;jettySize=auto;orthogonalLoop=1;strokeColor=#F08705;strokeWidth=3;fontFamily=Helvetica;fontSize=14;fontColor=#FFFFFF;spacing=5;entryX=0;entryY=0.5;entryDx=0;entryDy=0;exitX=1;exitY=0.5;exitDx=0;exitDy=0;" edge="1" parent="1" source="xNPvfq1fxMJgjm_zQKp6-8" target="xNPvfq1fxMJgjm_zQKp6-28">
          <mxGeometry relative="1" as="geometry">
            <mxPoint x="905" y="436" as="sourcePoint" />
            <mxPoint x="959.301775147929" y="368" as="targetPoint" />
          </mxGeometry>
        </mxCell>
        <mxCell id="xNPvfq1fxMJgjm_zQKp6-30" value="" style="edgeStyle=none;rounded=0;jumpStyle=none;html=1;shadow=0;labelBackgroundColor=none;startArrow=none;startFill=0;endArrow=classic;endFill=1;jettySize=auto;orthogonalLoop=1;strokeColor=#1699D3;strokeWidth=3;fontFamily=Helvetica;fontSize=14;fontColor=#FFFFFF;spacing=5;exitX=0;exitY=0.5;exitDx=0;exitDy=0;" edge="1" parent="1" source="xNPvfq1fxMJgjm_zQKp6-7" target="xNPvfq1fxMJgjm_zQKp6-31">
          <mxGeometry relative="1" as="geometry">
            <mxPoint x="812.5" y="668" as="sourcePoint" />
          </mxGeometry>
        </mxCell>
        <mxCell id="xNPvfq1fxMJgjm_zQKp6-31" value="Що?" style="rounded=1;whiteSpace=wrap;html=1;shadow=0;labelBackgroundColor=none;strokeColor=none;strokeWidth=3;fillColor=#64bbe2;fontFamily=Helvetica;fontSize=14;fontColor=#FFFFFF;align=center;spacing=5;arcSize=7;perimeterSpacing=2;" vertex="1" parent="1">
          <mxGeometry x="494" y="685" width="75" height="60" as="geometry" />
        </mxCell>
        <mxCell id="xNPvfq1fxMJgjm_zQKp6-32" value="" style="edgeStyle=none;rounded=0;jumpStyle=none;html=1;shadow=0;labelBackgroundColor=none;startArrow=none;startFill=0;endArrow=classic;endFill=1;jettySize=auto;orthogonalLoop=1;strokeColor=#1699D3;strokeWidth=3;fontFamily=Helvetica;fontSize=14;fontColor=#FFFFFF;spacing=5;exitX=0.25;exitY=1;exitDx=0;exitDy=0;" edge="1" parent="1" source="xNPvfq1fxMJgjm_zQKp6-7" target="xNPvfq1fxMJgjm_zQKp6-33">
          <mxGeometry relative="1" as="geometry">
            <mxPoint x="837.4994999999999" y="742.0160000000001" as="sourcePoint" />
          </mxGeometry>
        </mxCell>
        <mxCell id="xNPvfq1fxMJgjm_zQKp6-33" value="Де?" style="rounded=1;whiteSpace=wrap;html=1;shadow=0;labelBackgroundColor=none;strokeColor=none;strokeWidth=3;fillColor=#64bbe2;fontFamily=Helvetica;fontSize=14;fontColor=#FFFFFF;align=center;spacing=5;arcSize=7;perimeterSpacing=2;" vertex="1" parent="1">
          <mxGeometry x="749.5" y="791" width="75" height="60" as="geometry" />
        </mxCell>
        <mxCell id="xNPvfq1fxMJgjm_zQKp6-34" value="" style="edgeStyle=none;rounded=0;jumpStyle=none;html=1;shadow=0;labelBackgroundColor=none;startArrow=none;startFill=0;endArrow=classic;endFill=1;jettySize=auto;orthogonalLoop=1;strokeColor=#1699D3;strokeWidth=3;fontFamily=Helvetica;fontSize=14;fontColor=#FFFFFF;spacing=5;" edge="1" parent="1" source="xNPvfq1fxMJgjm_zQKp6-7" target="xNPvfq1fxMJgjm_zQKp6-35">
          <mxGeometry relative="1" as="geometry">
            <mxPoint x="875.7608695652175" y="744" as="sourcePoint" />
          </mxGeometry>
        </mxCell>
        <mxCell id="xNPvfq1fxMJgjm_zQKp6-35" value="Коли?" style="rounded=1;whiteSpace=wrap;html=1;shadow=0;labelBackgroundColor=none;strokeColor=none;strokeWidth=3;fillColor=#64bbe2;fontFamily=Helvetica;fontSize=14;fontColor=#FFFFFF;align=center;spacing=5;arcSize=7;perimeterSpacing=2;" vertex="1" parent="1">
          <mxGeometry x="866.5" y="791" width="75" height="60" as="geometry" />
        </mxCell>
        <mxCell id="xNPvfq1fxMJgjm_zQKp6-36" value="" style="edgeStyle=none;rounded=0;jumpStyle=none;html=1;shadow=0;labelBackgroundColor=none;startArrow=none;startFill=0;endArrow=classic;endFill=1;jettySize=auto;orthogonalLoop=1;strokeColor=#1699D3;strokeWidth=3;fontFamily=Helvetica;fontSize=14;fontColor=#FFFFFF;spacing=5;exitX=1;exitY=0.5;exitDx=0;exitDy=0;" edge="1" parent="1" source="xNPvfq1fxMJgjm_zQKp6-7" target="xNPvfq1fxMJgjm_zQKp6-37">
          <mxGeometry relative="1" as="geometry">
            <mxPoint x="912.75" y="712" as="sourcePoint" />
          </mxGeometry>
        </mxCell>
        <mxCell id="xNPvfq1fxMJgjm_zQKp6-37" value="Як?" style="rounded=1;whiteSpace=wrap;html=1;shadow=0;labelBackgroundColor=none;strokeColor=none;strokeWidth=3;fillColor=#64bbe2;fontFamily=Helvetica;fontSize=14;fontColor=#FFFFFF;align=center;spacing=5;arcSize=7;perimeterSpacing=2;" vertex="1" parent="1">
          <mxGeometry x="1100.5" y="690" width="75" height="60" as="geometry" />
        </mxCell>
        <mxCell id="xNPvfq1fxMJgjm_zQKp6-38" value="" style="edgeStyle=none;rounded=1;jumpStyle=none;html=1;shadow=0;labelBackgroundColor=none;startArrow=none;startFill=0;jettySize=auto;orthogonalLoop=1;strokeColor=#E85642;strokeWidth=3;fontFamily=Helvetica;fontSize=14;fontColor=#FFFFFF;spacing=5;fontStyle=1;fillColor=#b0e3e6;exitX=0.382;exitY=0.011;exitDx=0;exitDy=0;exitPerimeter=0;" edge="1" parent="1" source="xNPvfq1fxMJgjm_zQKp6-6" target="xNPvfq1fxMJgjm_zQKp6-39">
          <mxGeometry relative="1" as="geometry">
            <mxPoint x="319.3587786259541" y="523.5" as="sourcePoint" />
          </mxGeometry>
        </mxCell>
        <mxCell id="xNPvfq1fxMJgjm_zQKp6-39" value="Що?" style="rounded=1;whiteSpace=wrap;html=1;shadow=0;labelBackgroundColor=none;strokeColor=none;strokeWidth=3;fillColor=#f08e81;fontFamily=Helvetica;fontSize=14;fontColor=#FFFFFF;align=center;spacing=5;fontStyle=0;arcSize=7;perimeterSpacing=2;" vertex="1" parent="1">
          <mxGeometry x="282" y="315" width="64" height="55" as="geometry" />
        </mxCell>
        <mxCell id="xNPvfq1fxMJgjm_zQKp6-40" value="" style="edgeStyle=none;rounded=1;jumpStyle=none;html=1;shadow=0;labelBackgroundColor=none;startArrow=none;startFill=0;jettySize=auto;orthogonalLoop=1;strokeColor=#E85642;strokeWidth=3;fontFamily=Helvetica;fontSize=14;fontColor=#FFFFFF;spacing=5;fontStyle=1;fillColor=#b0e3e6;exitX=0.03;exitY=0.125;exitDx=0;exitDy=0;exitPerimeter=0;" edge="1" parent="1" source="xNPvfq1fxMJgjm_zQKp6-6" target="xNPvfq1fxMJgjm_zQKp6-41">
          <mxGeometry relative="1" as="geometry">
            <mxPoint x="396.9580000000001" y="623.008" as="sourcePoint" />
          </mxGeometry>
        </mxCell>
        <mxCell id="xNPvfq1fxMJgjm_zQKp6-41" value="Де?" style="rounded=1;whiteSpace=wrap;html=1;shadow=0;labelBackgroundColor=none;strokeColor=none;strokeWidth=3;fillColor=#f08e81;fontFamily=Helvetica;fontSize=14;fontColor=#FFFFFF;align=center;spacing=5;fontStyle=0;arcSize=7;perimeterSpacing=2;" vertex="1" parent="1">
          <mxGeometry x="276" y="435" width="70" height="57" as="geometry" />
        </mxCell>
        <mxCell id="xNPvfq1fxMJgjm_zQKp6-42" value="" style="edgeStyle=none;rounded=1;jumpStyle=none;html=1;shadow=0;labelBackgroundColor=none;startArrow=none;startFill=0;jettySize=auto;orthogonalLoop=1;strokeColor=#E85642;strokeWidth=3;fontFamily=Helvetica;fontSize=14;fontColor=#FFFFFF;spacing=5;fontStyle=1;fillColor=#b0e3e6;entryX=1;entryY=0.5;entryDx=0;entryDy=0;exitX=0.04;exitY=0.906;exitDx=0;exitDy=0;exitPerimeter=0;" edge="1" parent="1" source="xNPvfq1fxMJgjm_zQKp6-6" target="xNPvfq1fxMJgjm_zQKp6-43">
          <mxGeometry relative="1" as="geometry">
            <mxPoint x="430.9580000000001" y="741.008" as="sourcePoint" />
          </mxGeometry>
        </mxCell>
        <mxCell id="xNPvfq1fxMJgjm_zQKp6-43" value="Коли?" style="rounded=1;whiteSpace=wrap;html=1;shadow=0;labelBackgroundColor=none;strokeColor=none;strokeWidth=3;fillColor=#f08e81;fontFamily=Helvetica;fontSize=14;fontColor=#FFFFFF;align=center;spacing=5;fontStyle=0;arcSize=7;perimeterSpacing=2;" vertex="1" parent="1">
          <mxGeometry x="276" y="633" width="63" height="57" as="geometry" />
        </mxCell>
        <mxCell id="xNPvfq1fxMJgjm_zQKp6-44" value="" style="edgeStyle=none;rounded=1;jumpStyle=none;html=1;shadow=0;labelBackgroundColor=none;startArrow=none;startFill=0;jettySize=auto;orthogonalLoop=1;strokeColor=#E85642;strokeWidth=3;fontFamily=Helvetica;fontSize=14;fontColor=#FFFFFF;spacing=5;fontStyle=1;fillColor=#b0e3e6;entryX=1;entryY=0;entryDx=0;entryDy=0;" edge="1" parent="1" source="xNPvfq1fxMJgjm_zQKp6-6" target="xNPvfq1fxMJgjm_zQKp6-45">
          <mxGeometry relative="1" as="geometry">
            <mxPoint x="472.9580000000001" y="757.008" as="sourcePoint" />
          </mxGeometry>
        </mxCell>
        <mxCell id="xNPvfq1fxMJgjm_zQKp6-45" value="Як?" style="rounded=1;whiteSpace=wrap;html=1;shadow=0;labelBackgroundColor=none;strokeColor=none;strokeWidth=3;fillColor=#f08e81;fontFamily=Helvetica;fontSize=14;fontColor=#FFFFFF;align=center;spacing=5;fontStyle=0;arcSize=7;perimeterSpacing=2;" vertex="1" parent="1">
          <mxGeometry x="273" y="819" width="69" height="57" as="geometry" />
        </mxCell>
        <mxCell id="xNPvfq1fxMJgjm_zQKp6-46" value="Природне &#xa;бажання" style="fontFamily=Helvetica;fontSize=14;" vertex="1" parent="1">
          <mxGeometry x="1463" y="75.5" width="82" height="60" as="geometry" />
        </mxCell>
        <mxCell id="xNPvfq1fxMJgjm_zQKp6-47" value="" style="edgeStyle=none;rounded=1;jumpStyle=none;html=1;shadow=0;labelBackgroundColor=none;startArrow=none;startFill=0;jettySize=auto;orthogonalLoop=1;strokeColor=#12AAB5;strokeWidth=3;fontFamily=Helvetica;fontSize=14;fontColor=#FFFFFF;spacing=5;fontStyle=1;fillColor=#b0e3e6;entryX=0.5;entryY=1;entryDx=0;entryDy=0;" edge="1" parent="1" source="xNPvfq1fxMJgjm_zQKp6-18" target="xNPvfq1fxMJgjm_zQKp6-46">
          <mxGeometry relative="1" as="geometry">
            <mxPoint x="1680.5" y="289" as="sourcePoint" />
            <mxPoint x="1672" y="237" as="targetPoint" />
          </mxGeometry>
        </mxCell>
        <mxCell id="xNPvfq1fxMJgjm_zQKp6-48" value="Вибір &#xa;страви " style="fontFamily=Helvetica;fontSize=14;" vertex="1" parent="1">
          <mxGeometry x="1560" y="75.5" width="82" height="60" as="geometry" />
        </mxCell>
        <mxCell id="xNPvfq1fxMJgjm_zQKp6-49" value="Отримання &#xa;енергії" style="fontFamily=Helvetica;fontSize=14;" vertex="1" parent="1">
          <mxGeometry x="1572" y="296" width="82" height="60" as="geometry" />
        </mxCell>
        <mxCell id="xNPvfq1fxMJgjm_zQKp6-50" value="" style="edgeStyle=none;rounded=1;jumpStyle=none;html=1;shadow=0;labelBackgroundColor=none;startArrow=none;startFill=0;jettySize=auto;orthogonalLoop=1;strokeColor=#12AAB5;strokeWidth=3;fontFamily=Helvetica;fontSize=14;fontColor=#FFFFFF;spacing=5;fontStyle=1;fillColor=#b0e3e6;entryX=0;entryY=0.5;entryDx=0;entryDy=0;exitX=1;exitY=0.25;exitDx=0;exitDy=0;" edge="1" parent="1" source="xNPvfq1fxMJgjm_zQKp6-20" target="xNPvfq1fxMJgjm_zQKp6-49">
          <mxGeometry relative="1" as="geometry">
            <mxPoint x="1201.25" y="405" as="sourcePoint" />
            <mxPoint x="1124.25" y="429.12345679012344" as="targetPoint" />
          </mxGeometry>
        </mxCell>
        <mxCell id="xNPvfq1fxMJgjm_zQKp6-51" value="" style="edgeStyle=none;rounded=1;jumpStyle=none;html=1;shadow=0;labelBackgroundColor=none;startArrow=none;startFill=0;jettySize=auto;orthogonalLoop=1;strokeColor=#12AAB5;strokeWidth=3;fontFamily=Helvetica;fontSize=14;fontColor=#FFFFFF;spacing=5;fontStyle=1;fillColor=#b0e3e6;" edge="1" parent="1" source="xNPvfq1fxMJgjm_zQKp6-19" target="xNPvfq1fxMJgjm_zQKp6-48">
          <mxGeometry relative="1" as="geometry">
            <mxPoint x="1852" y="270" as="sourcePoint" />
            <mxPoint x="1877" y="270" as="targetPoint" />
          </mxGeometry>
        </mxCell>
        <mxCell id="xNPvfq1fxMJgjm_zQKp6-52" value="Приходить" style="rounded=1;whiteSpace=wrap;html=1;shadow=0;fillColor=#DEF5EB;fontFamily=Helvetica;fontSize=14;fontColor=#000000;align=center;spacing=5;fontStyle=0;arcSize=7;perimeterSpacing=2;" vertex="1" parent="1">
          <mxGeometry x="1455" y="350" width="82" height="60" as="geometry" />
        </mxCell>
        <mxCell id="xNPvfq1fxMJgjm_zQKp6-53" value="Обробляється" style="rounded=1;whiteSpace=wrap;html=1;shadow=0;fillColor=#DEF5EB;fontFamily=Helvetica;fontSize=14;fontColor=#000000;align=center;spacing=5;fontStyle=0;arcSize=7;perimeterSpacing=2;" vertex="1" parent="1">
          <mxGeometry x="1441" y="435" width="106" height="60" as="geometry" />
        </mxCell>
        <mxCell id="xNPvfq1fxMJgjm_zQKp6-54" value="Виходить" style="rounded=1;whiteSpace=wrap;html=1;shadow=0;fillColor=#DEF5EB;fontFamily=Helvetica;fontSize=14;fontColor=#000000;align=center;spacing=5;fontStyle=0;arcSize=7;perimeterSpacing=2;" vertex="1" parent="1">
          <mxGeometry x="1454" y="509" width="84" height="60" as="geometry" />
        </mxCell>
        <mxCell id="xNPvfq1fxMJgjm_zQKp6-55" value="" style="edgeStyle=none;rounded=1;jumpStyle=none;html=1;shadow=0;labelBackgroundColor=none;startArrow=none;startFill=0;jettySize=auto;orthogonalLoop=1;strokeColor=#12AAB5;strokeWidth=3;fontFamily=Helvetica;fontSize=14;fontColor=#FFFFFF;spacing=5;fontStyle=1;fillColor=#b0e3e6;exitX=1;exitY=0;exitDx=0;exitDy=0;" edge="1" parent="1" source="xNPvfq1fxMJgjm_zQKp6-14" target="xNPvfq1fxMJgjm_zQKp6-52">
          <mxGeometry relative="1" as="geometry">
            <mxPoint x="1669.25" y="363.5" as="sourcePoint" />
            <mxPoint x="1660.75" y="311.4999999999999" as="targetPoint" />
          </mxGeometry>
        </mxCell>
        <mxCell id="xNPvfq1fxMJgjm_zQKp6-56" value="" style="edgeStyle=none;rounded=1;jumpStyle=none;html=1;shadow=0;labelBackgroundColor=none;startArrow=none;startFill=0;jettySize=auto;orthogonalLoop=1;strokeColor=#12AAB5;strokeWidth=3;fontFamily=Helvetica;fontSize=14;fontColor=#FFFFFF;spacing=5;fontStyle=1;fillColor=#b0e3e6;" edge="1" parent="1" source="xNPvfq1fxMJgjm_zQKp6-14" target="xNPvfq1fxMJgjm_zQKp6-53">
          <mxGeometry relative="1" as="geometry">
            <mxPoint x="1538.7040000000002" y="620.476" as="sourcePoint" />
            <mxPoint x="1573.4425086139822" y="580.4999999999999" as="targetPoint" />
          </mxGeometry>
        </mxCell>
        <mxCell id="xNPvfq1fxMJgjm_zQKp6-57" value="" style="edgeStyle=none;rounded=1;jumpStyle=none;html=1;shadow=0;labelBackgroundColor=none;startArrow=none;startFill=0;jettySize=auto;orthogonalLoop=1;strokeColor=#12AAB5;strokeWidth=3;fontFamily=Helvetica;fontSize=14;fontColor=#FFFFFF;spacing=5;fontStyle=1;fillColor=#b0e3e6;exitX=1;exitY=1;exitDx=0;exitDy=0;entryX=0;entryY=0.5;entryDx=0;entryDy=0;" edge="1" parent="1" source="xNPvfq1fxMJgjm_zQKp6-14" target="xNPvfq1fxMJgjm_zQKp6-54">
          <mxGeometry relative="1" as="geometry">
            <mxPoint x="1543.75" y="653.5" as="sourcePoint" />
            <mxPoint x="1580.75" y="641.6234567901234" as="targetPoint" />
          </mxGeometry>
        </mxCell>
        <mxCell id="xNPvfq1fxMJgjm_zQKp6-58" value="Фізіологічні &#xa;потреби" style="fontFamily=Helvetica;fontSize=14;" vertex="1" parent="1">
          <mxGeometry x="1572" y="373.5" width="82" height="60" as="geometry" />
        </mxCell>
        <mxCell id="xNPvfq1fxMJgjm_zQKp6-59" value="" style="edgeStyle=none;rounded=1;jumpStyle=none;html=1;shadow=0;labelBackgroundColor=none;startArrow=none;startFill=0;jettySize=auto;orthogonalLoop=1;strokeColor=#12AAB5;strokeWidth=3;fontFamily=Helvetica;fontSize=14;fontColor=#FFFFFF;spacing=5;fontStyle=1;fillColor=#b0e3e6;entryX=0;entryY=0.5;entryDx=0;entryDy=0;" edge="1" parent="1" source="xNPvfq1fxMJgjm_zQKp6-52" target="xNPvfq1fxMJgjm_zQKp6-58">
          <mxGeometry relative="1" as="geometry">
            <mxPoint x="1674.5" y="422.5" as="sourcePoint" />
            <mxPoint x="1666" y="370.5" as="targetPoint" />
          </mxGeometry>
        </mxCell>
        <mxCell id="xNPvfq1fxMJgjm_zQKp6-60" value="Кухня" style="fontFamily=Helvetica;fontSize=14;" vertex="1" parent="1">
          <mxGeometry x="1572" y="443" width="82" height="60" as="geometry" />
        </mxCell>
        <mxCell id="xNPvfq1fxMJgjm_zQKp6-61" value="Насолода &#xa;від їжі" style="fontFamily=Helvetica;fontSize=14;" vertex="1" parent="1">
          <mxGeometry x="1572" y="515" width="82" height="60" as="geometry" />
        </mxCell>
        <mxCell id="xNPvfq1fxMJgjm_zQKp6-62" value="" style="edgeStyle=none;rounded=1;jumpStyle=none;html=1;shadow=0;labelBackgroundColor=none;startArrow=none;startFill=0;jettySize=auto;orthogonalLoop=1;strokeColor=#12AAB5;strokeWidth=3;fontFamily=Helvetica;fontSize=14;fontColor=#FFFFFF;spacing=5;fontStyle=1;fillColor=#b0e3e6;entryX=0;entryY=0.5;entryDx=0;entryDy=0;" edge="1" parent="1" source="xNPvfq1fxMJgjm_zQKp6-54" target="xNPvfq1fxMJgjm_zQKp6-61">
          <mxGeometry relative="1" as="geometry">
            <mxPoint x="1667" y="651.5" as="sourcePoint" />
            <mxPoint x="1590" y="675.6234567901234" as="targetPoint" />
          </mxGeometry>
        </mxCell>
        <mxCell id="xNPvfq1fxMJgjm_zQKp6-63" value="" style="edgeStyle=none;rounded=1;jumpStyle=none;html=1;shadow=0;labelBackgroundColor=none;startArrow=none;startFill=0;jettySize=auto;orthogonalLoop=1;strokeColor=#12AAB5;strokeWidth=3;fontFamily=Helvetica;fontSize=14;fontColor=#FFFFFF;spacing=5;fontStyle=1;fillColor=#b0e3e6;" edge="1" parent="1" source="xNPvfq1fxMJgjm_zQKp6-53" target="xNPvfq1fxMJgjm_zQKp6-60">
          <mxGeometry relative="1" as="geometry">
            <mxPoint x="1677" y="661.5" as="sourcePoint" />
            <mxPoint x="1702" y="661.5" as="targetPoint" />
          </mxGeometry>
        </mxCell>
        <mxCell id="xNPvfq1fxMJgjm_zQKp6-64" value="Приходить" style="rounded=1;whiteSpace=wrap;html=1;shadow=0;fillColor=#DEF5EB;fontFamily=Helvetica;fontSize=14;fontColor=#000000;align=center;spacing=5;fontStyle=0;arcSize=7;perimeterSpacing=2;" vertex="1" parent="1">
          <mxGeometry x="1456" y="590" width="82" height="58.5" as="geometry" />
        </mxCell>
        <mxCell id="xNPvfq1fxMJgjm_zQKp6-65" value="Обробляється" style="rounded=1;whiteSpace=wrap;html=1;shadow=0;fillColor=#DEF5EB;fontFamily=Helvetica;fontSize=14;fontColor=#000000;align=center;spacing=5;fontStyle=0;arcSize=7;perimeterSpacing=2;" vertex="1" parent="1">
          <mxGeometry x="1442" y="662" width="106" height="60" as="geometry" />
        </mxCell>
        <mxCell id="xNPvfq1fxMJgjm_zQKp6-66" value="Виходить" style="rounded=1;whiteSpace=wrap;html=1;shadow=0;fillColor=#DEF5EB;fontFamily=Helvetica;fontSize=14;fontColor=#000000;align=center;spacing=5;fontStyle=0;arcSize=7;perimeterSpacing=2;" vertex="1" parent="1">
          <mxGeometry x="1451" y="745" width="84" height="60" as="geometry" />
        </mxCell>
        <mxCell id="xNPvfq1fxMJgjm_zQKp6-67" value="" style="edgeStyle=none;rounded=1;jumpStyle=none;html=1;shadow=0;labelBackgroundColor=none;startArrow=none;startFill=0;jettySize=auto;orthogonalLoop=1;strokeColor=#12AAB5;strokeWidth=3;fontFamily=Helvetica;fontSize=14;fontColor=#FFFFFF;spacing=5;fontStyle=1;fillColor=#b0e3e6;exitX=0;exitY=0;exitDx=0;exitDy=0;" edge="1" parent="1" source="xNPvfq1fxMJgjm_zQKp6-12" target="xNPvfq1fxMJgjm_zQKp6-64">
          <mxGeometry relative="1" as="geometry">
            <mxPoint x="1402.75" y="648" as="sourcePoint" />
            <mxPoint x="1667.75" y="547.4999999999999" as="targetPoint" />
          </mxGeometry>
        </mxCell>
        <mxCell id="xNPvfq1fxMJgjm_zQKp6-68" value="" style="edgeStyle=none;rounded=1;jumpStyle=none;html=1;shadow=0;labelBackgroundColor=none;startArrow=none;startFill=0;jettySize=auto;orthogonalLoop=1;strokeColor=#12AAB5;strokeWidth=3;fontFamily=Helvetica;fontSize=14;fontColor=#FFFFFF;spacing=5;fontStyle=1;fillColor=#b0e3e6;" edge="1" parent="1" source="xNPvfq1fxMJgjm_zQKp6-12" target="xNPvfq1fxMJgjm_zQKp6-65">
          <mxGeometry relative="1" as="geometry">
            <mxPoint x="1418.75" y="689.5148936170212" as="sourcePoint" />
            <mxPoint x="1580.4425086139822" y="816.5" as="targetPoint" />
          </mxGeometry>
        </mxCell>
        <mxCell id="xNPvfq1fxMJgjm_zQKp6-69" value="" style="edgeStyle=none;rounded=1;jumpStyle=none;html=1;shadow=0;labelBackgroundColor=none;startArrow=none;startFill=0;jettySize=auto;orthogonalLoop=1;strokeColor=#12AAB5;strokeWidth=3;fontFamily=Helvetica;fontSize=14;fontColor=#FFFFFF;spacing=5;fontStyle=1;fillColor=#b0e3e6;entryX=0;entryY=0.5;entryDx=0;entryDy=0;" edge="1" parent="1" source="xNPvfq1fxMJgjm_zQKp6-12" target="xNPvfq1fxMJgjm_zQKp6-66">
          <mxGeometry relative="1" as="geometry">
            <mxPoint x="1418.75" y="724" as="sourcePoint" />
            <mxPoint x="1587.75" y="877.6234567901233" as="targetPoint" />
          </mxGeometry>
        </mxCell>
        <mxCell id="xNPvfq1fxMJgjm_zQKp6-70" value="будь-який &#xa;час" style="fontFamily=Helvetica;fontSize=14;" vertex="1" parent="1">
          <mxGeometry x="1572" y="589" width="82" height="60" as="geometry" />
        </mxCell>
        <mxCell id="xNPvfq1fxMJgjm_zQKp6-71" value="" style="edgeStyle=none;rounded=1;jumpStyle=none;html=1;shadow=0;labelBackgroundColor=none;startArrow=none;startFill=0;jettySize=auto;orthogonalLoop=1;strokeColor=#12AAB5;strokeWidth=3;fontFamily=Helvetica;fontSize=14;fontColor=#FFFFFF;spacing=5;fontStyle=1;fillColor=#b0e3e6;entryX=0;entryY=0.5;entryDx=0;entryDy=0;" edge="1" parent="1" source="xNPvfq1fxMJgjm_zQKp6-64" target="xNPvfq1fxMJgjm_zQKp6-70">
          <mxGeometry relative="1" as="geometry">
            <mxPoint x="1681.5" y="658.5" as="sourcePoint" />
            <mxPoint x="1673" y="606.5" as="targetPoint" />
          </mxGeometry>
        </mxCell>
        <mxCell id="xNPvfq1fxMJgjm_zQKp6-72" value="Приготування &#xa;їжі" style="fontFamily=Helvetica;fontSize=14;" vertex="1" parent="1">
          <mxGeometry x="1572" y="662" width="82" height="60" as="geometry" />
        </mxCell>
        <mxCell id="xNPvfq1fxMJgjm_zQKp6-73" value="Споживання" style="fontFamily=Helvetica;fontSize=14;" vertex="1" parent="1">
          <mxGeometry x="1572" y="736" width="82" height="60" as="geometry" />
        </mxCell>
        <mxCell id="xNPvfq1fxMJgjm_zQKp6-74" value="" style="edgeStyle=none;rounded=1;jumpStyle=none;html=1;shadow=0;labelBackgroundColor=none;startArrow=none;startFill=0;jettySize=auto;orthogonalLoop=1;strokeColor=#12AAB5;strokeWidth=3;fontFamily=Helvetica;fontSize=14;fontColor=#FFFFFF;spacing=5;fontStyle=1;fillColor=#b0e3e6;entryX=0;entryY=0.5;entryDx=0;entryDy=0;" edge="1" parent="1" source="xNPvfq1fxMJgjm_zQKp6-66" target="xNPvfq1fxMJgjm_zQKp6-73">
          <mxGeometry relative="1" as="geometry">
            <mxPoint x="1674" y="887.5" as="sourcePoint" />
            <mxPoint x="1597" y="911.6234567901233" as="targetPoint" />
          </mxGeometry>
        </mxCell>
        <mxCell id="xNPvfq1fxMJgjm_zQKp6-75" value="" style="edgeStyle=none;rounded=1;jumpStyle=none;html=1;shadow=0;labelBackgroundColor=none;startArrow=none;startFill=0;jettySize=auto;orthogonalLoop=1;strokeColor=#12AAB5;strokeWidth=3;fontFamily=Helvetica;fontSize=14;fontColor=#FFFFFF;spacing=5;fontStyle=1;fillColor=#b0e3e6;" edge="1" parent="1" source="xNPvfq1fxMJgjm_zQKp6-65" target="xNPvfq1fxMJgjm_zQKp6-72">
          <mxGeometry relative="1" as="geometry">
            <mxPoint x="1684" y="897.5" as="sourcePoint" />
            <mxPoint x="1709" y="897.5" as="targetPoint" />
          </mxGeometry>
        </mxCell>
        <mxCell id="xNPvfq1fxMJgjm_zQKp6-76" value="Приходить" style="rounded=1;whiteSpace=wrap;html=1;shadow=0;fillColor=#DEF5EB;fontFamily=Helvetica;fontSize=14;fontColor=#000000;align=center;spacing=5;fontStyle=0;arcSize=7;perimeterSpacing=2;" vertex="1" parent="1">
          <mxGeometry x="1454" y="824" width="82" height="60" as="geometry" />
        </mxCell>
        <mxCell id="xNPvfq1fxMJgjm_zQKp6-77" value="Обробляється" style="rounded=1;whiteSpace=wrap;html=1;shadow=0;fillColor=#DEF5EB;fontFamily=Helvetica;fontSize=14;fontColor=#000000;align=center;spacing=5;fontStyle=0;arcSize=7;perimeterSpacing=2;" vertex="1" parent="1">
          <mxGeometry x="1513" y="940" width="106" height="60" as="geometry" />
        </mxCell>
        <mxCell id="xNPvfq1fxMJgjm_zQKp6-78" value="Виходить" style="rounded=1;whiteSpace=wrap;html=1;shadow=0;fillColor=#DEF5EB;fontFamily=Helvetica;fontSize=14;fontColor=#000000;align=center;spacing=5;fontStyle=0;arcSize=7;perimeterSpacing=2;" vertex="1" parent="1">
          <mxGeometry x="1414" y="940" width="84" height="60" as="geometry" />
        </mxCell>
        <mxCell id="xNPvfq1fxMJgjm_zQKp6-79" value="" style="edgeStyle=none;rounded=1;jumpStyle=none;html=1;shadow=0;labelBackgroundColor=none;startArrow=none;startFill=0;jettySize=auto;orthogonalLoop=1;strokeColor=#12AAB5;strokeWidth=3;fontFamily=Helvetica;fontSize=14;fontColor=#FFFFFF;spacing=5;fontStyle=1;fillColor=#b0e3e6;exitX=1;exitY=0.75;exitDx=0;exitDy=0;" edge="1" parent="1" source="xNPvfq1fxMJgjm_zQKp6-10" target="xNPvfq1fxMJgjm_zQKp6-76">
          <mxGeometry relative="1" as="geometry">
            <mxPoint x="1385.8899999999999" y="1085.7500000000002" as="sourcePoint" />
            <mxPoint x="1640.8900000000003" y="997.5" as="targetPoint" />
          </mxGeometry>
        </mxCell>
        <mxCell id="xNPvfq1fxMJgjm_zQKp6-80" value="" style="edgeStyle=none;rounded=1;jumpStyle=none;html=1;shadow=0;labelBackgroundColor=none;startArrow=none;startFill=0;jettySize=auto;orthogonalLoop=1;strokeColor=#12AAB5;strokeWidth=3;fontFamily=Helvetica;fontSize=14;fontColor=#FFFFFF;spacing=5;fontStyle=1;fillColor=#b0e3e6;exitX=0.5;exitY=1;exitDx=0;exitDy=0;entryX=0.5;entryY=0;entryDx=0;entryDy=0;" edge="1" parent="1" source="xNPvfq1fxMJgjm_zQKp6-10" target="xNPvfq1fxMJgjm_zQKp6-77">
          <mxGeometry relative="1" as="geometry">
            <mxPoint x="1550.8899999999999" y="1139.477412731006" as="sourcePoint" />
            <mxPoint x="1718.582508613982" y="1283.5" as="targetPoint" />
          </mxGeometry>
        </mxCell>
        <mxCell id="xNPvfq1fxMJgjm_zQKp6-81" value="" style="edgeStyle=none;rounded=1;jumpStyle=none;html=1;shadow=0;labelBackgroundColor=none;startArrow=none;startFill=0;jettySize=auto;orthogonalLoop=1;strokeColor=#12AAB5;strokeWidth=3;fontFamily=Helvetica;fontSize=14;fontColor=#FFFFFF;spacing=5;fontStyle=1;fillColor=#b0e3e6;exitX=0.25;exitY=1;exitDx=0;exitDy=0;entryX=0.5;entryY=0;entryDx=0;entryDy=0;" edge="1" parent="1" source="xNPvfq1fxMJgjm_zQKp6-10" target="xNPvfq1fxMJgjm_zQKp6-78">
          <mxGeometry relative="1" as="geometry">
            <mxPoint x="1541.002343966713" y="1166.9999999999998" as="sourcePoint" />
            <mxPoint x="1725.8899999999999" y="1344.6234567901233" as="targetPoint" />
          </mxGeometry>
        </mxCell>
        <mxCell id="xNPvfq1fxMJgjm_zQKp6-82" value="Сигнали &#xa;організму" style="fontFamily=Helvetica;fontSize=14;" vertex="1" parent="1">
          <mxGeometry x="1572" y="808" width="82" height="60" as="geometry" />
        </mxCell>
        <mxCell id="xNPvfq1fxMJgjm_zQKp6-83" value="" style="edgeStyle=none;rounded=1;jumpStyle=none;html=1;shadow=0;labelBackgroundColor=none;startArrow=none;startFill=0;jettySize=auto;orthogonalLoop=1;strokeColor=#12AAB5;strokeWidth=3;fontFamily=Helvetica;fontSize=14;fontColor=#FFFFFF;spacing=5;fontStyle=1;fillColor=#b0e3e6;entryX=0;entryY=0.5;entryDx=0;entryDy=0;" edge="1" parent="1" source="xNPvfq1fxMJgjm_zQKp6-76" target="xNPvfq1fxMJgjm_zQKp6-82">
          <mxGeometry relative="1" as="geometry">
            <mxPoint x="1492.64" y="1108.5" as="sourcePoint" />
            <mxPoint x="1575.7500000000005" y="978" as="targetPoint" />
          </mxGeometry>
        </mxCell>
        <mxCell id="xNPvfq1fxMJgjm_zQKp6-84" value="Вибір &#xa;продуктів" style="fontFamily=Helvetica;fontSize=14;" vertex="1" parent="1">
          <mxGeometry x="1537" y="1036" width="82" height="60" as="geometry" />
        </mxCell>
        <mxCell id="xNPvfq1fxMJgjm_zQKp6-85" value="Смакові &#xa;відчуття" style="fontFamily=Helvetica;fontSize=14;" vertex="1" parent="1">
          <mxGeometry x="1442" y="1036" width="82" height="60" as="geometry" />
        </mxCell>
        <mxCell id="xNPvfq1fxMJgjm_zQKp6-86" value="" style="edgeStyle=none;rounded=1;jumpStyle=none;html=1;shadow=0;labelBackgroundColor=none;startArrow=none;startFill=0;jettySize=auto;orthogonalLoop=1;strokeColor=#12AAB5;strokeWidth=3;fontFamily=Helvetica;fontSize=14;fontColor=#FFFFFF;spacing=5;fontStyle=1;fillColor=#b0e3e6;entryX=0.5;entryY=0;entryDx=0;entryDy=0;" edge="1" parent="1" source="xNPvfq1fxMJgjm_zQKp6-78" target="xNPvfq1fxMJgjm_zQKp6-85">
          <mxGeometry relative="1" as="geometry">
            <mxPoint x="1718.5" y="1372.5" as="sourcePoint" />
            <mxPoint x="1641.5" y="1396.6234567901233" as="targetPoint" />
          </mxGeometry>
        </mxCell>
        <mxCell id="xNPvfq1fxMJgjm_zQKp6-87" value="" style="edgeStyle=none;rounded=1;jumpStyle=none;html=1;shadow=0;labelBackgroundColor=none;startArrow=none;startFill=0;jettySize=auto;orthogonalLoop=1;strokeColor=#12AAB5;strokeWidth=3;fontFamily=Helvetica;fontSize=14;fontColor=#FFFFFF;spacing=5;fontStyle=1;fillColor=#b0e3e6;" edge="1" parent="1" source="xNPvfq1fxMJgjm_zQKp6-77" target="xNPvfq1fxMJgjm_zQKp6-84">
          <mxGeometry relative="1" as="geometry">
            <mxPoint x="1820.8900000000003" y="1347.5" as="sourcePoint" />
            <mxPoint x="1845.8900000000003" y="1347.5" as="targetPoint" />
          </mxGeometry>
        </mxCell>
        <mxCell id="xNPvfq1fxMJgjm_zQKp6-88" value="Виходить" style="rounded=1;whiteSpace=wrap;html=1;shadow=0;fillColor=#fae8e6;fontFamily=Helvetica;fontSize=14;fontColor=#000000;align=center;spacing=5;fontStyle=0;arcSize=7;perimeterSpacing=2;direction=south;" vertex="1" parent="1">
          <mxGeometry x="127" y="352" width="82" height="60" as="geometry" />
        </mxCell>
        <mxCell id="xNPvfq1fxMJgjm_zQKp6-89" value="Приходить" style="rounded=1;whiteSpace=wrap;html=1;shadow=0;fillColor=#fae8e6;fontFamily=Helvetica;fontSize=14;fontColor=#000000;align=center;spacing=5;fontStyle=0;arcSize=7;perimeterSpacing=2;direction=south;" vertex="1" parent="1">
          <mxGeometry x="125" y="509" width="84" height="60" as="geometry" />
        </mxCell>
        <mxCell id="xNPvfq1fxMJgjm_zQKp6-90" value="Розширення &#xa;знань" style="fontFamily=Helvetica;fontSize=14;" vertex="1" parent="1">
          <mxGeometry x="7" y="350" width="82" height="60" as="geometry" />
        </mxCell>
        <mxCell id="xNPvfq1fxMJgjm_zQKp6-91" value="" style="edgeStyle=none;rounded=1;jumpStyle=none;html=1;shadow=0;labelBackgroundColor=none;startArrow=none;startFill=0;jettySize=auto;orthogonalLoop=1;strokeColor=#12AAB5;strokeWidth=3;fontFamily=Helvetica;fontSize=14;fontColor=#FFFFFF;spacing=5;fontStyle=1;fillColor=#b0e3e6;entryX=1;entryY=0.5;entryDx=0;entryDy=0;" edge="1" parent="1" source="xNPvfq1fxMJgjm_zQKp6-88" target="xNPvfq1fxMJgjm_zQKp6-90">
          <mxGeometry relative="1" as="geometry">
            <mxPoint x="120.5" y="417.5" as="sourcePoint" />
            <mxPoint x="112" y="365.5" as="targetPoint" />
          </mxGeometry>
        </mxCell>
        <mxCell id="xNPvfq1fxMJgjm_zQKp6-92" value="Дослідження &#xa;та читання" style="fontFamily=Helvetica;fontSize=14;" vertex="1" parent="1">
          <mxGeometry x="7" y="432" width="82" height="60" as="geometry" />
        </mxCell>
        <mxCell id="xNPvfq1fxMJgjm_zQKp6-93" value="Потреба &#xa;в розвитку" style="fontFamily=Helvetica;fontSize=14;" vertex="1" parent="1">
          <mxGeometry x="4" y="509" width="82" height="60" as="geometry" />
        </mxCell>
        <mxCell id="xNPvfq1fxMJgjm_zQKp6-94" value="" style="edgeStyle=none;rounded=1;jumpStyle=none;html=1;shadow=0;labelBackgroundColor=none;startArrow=none;startFill=0;jettySize=auto;orthogonalLoop=1;strokeColor=#12AAB5;strokeWidth=3;fontFamily=Helvetica;fontSize=14;fontColor=#FFFFFF;spacing=5;fontStyle=1;fillColor=#b0e3e6;entryX=1;entryY=0.5;entryDx=0;entryDy=0;" edge="1" parent="1" source="xNPvfq1fxMJgjm_zQKp6-89" target="xNPvfq1fxMJgjm_zQKp6-93">
          <mxGeometry relative="1" as="geometry">
            <mxPoint x="113" y="646.5" as="sourcePoint" />
            <mxPoint x="97" y="544" as="targetPoint" />
          </mxGeometry>
        </mxCell>
        <mxCell id="xNPvfq1fxMJgjm_zQKp6-95" value="" style="edgeStyle=none;rounded=1;jumpStyle=none;html=1;shadow=0;labelBackgroundColor=none;startArrow=none;startFill=0;jettySize=auto;orthogonalLoop=1;strokeColor=#12AAB5;strokeWidth=3;fontFamily=Helvetica;fontSize=14;fontColor=#FFFFFF;spacing=5;fontStyle=1;fillColor=#b0e3e6;entryX=1;entryY=0.5;entryDx=0;entryDy=0;exitX=0.5;exitY=1;exitDx=0;exitDy=0;" edge="1" parent="1" source="xNPvfq1fxMJgjm_zQKp6-104" target="xNPvfq1fxMJgjm_zQKp6-92">
          <mxGeometry relative="1" as="geometry">
            <mxPoint x="-5" y="459.07563025210106" as="sourcePoint" />
            <mxPoint x="148" y="656.5" as="targetPoint" />
          </mxGeometry>
        </mxCell>
        <mxCell id="xNPvfq1fxMJgjm_zQKp6-96" value="Виходить" style="rounded=1;whiteSpace=wrap;html=1;shadow=0;fillColor=#fae8e6;fontFamily=Helvetica;fontSize=14;fontColor=#000000;align=center;spacing=5;fontStyle=0;arcSize=7;perimeterSpacing=2;direction=south;" vertex="1" parent="1">
          <mxGeometry x="120" y="583" width="82" height="60" as="geometry" />
        </mxCell>
        <mxCell id="xNPvfq1fxMJgjm_zQKp6-97" value="Приходить" style="rounded=1;whiteSpace=wrap;html=1;shadow=0;fillColor=#fae8e6;fontFamily=Helvetica;fontSize=14;fontColor=#000000;align=center;spacing=5;fontStyle=0;arcSize=7;perimeterSpacing=2;direction=south;" vertex="1" parent="1">
          <mxGeometry x="119" y="739" width="84" height="60" as="geometry" />
        </mxCell>
        <mxCell id="xNPvfq1fxMJgjm_zQKp6-98" value="Обмін ідеями &#xa;та інформац." style="fontFamily=Helvetica;fontSize=14;" vertex="1" parent="1">
          <mxGeometry x="4" y="583" width="82" height="60" as="geometry" />
        </mxCell>
        <mxCell id="xNPvfq1fxMJgjm_zQKp6-99" value="" style="edgeStyle=none;rounded=1;jumpStyle=none;html=1;shadow=0;labelBackgroundColor=none;startArrow=none;startFill=0;jettySize=auto;orthogonalLoop=1;strokeColor=#12AAB5;strokeWidth=3;fontFamily=Helvetica;fontSize=14;fontColor=#FFFFFF;spacing=5;fontStyle=1;fillColor=#b0e3e6;entryX=1;entryY=0.5;entryDx=0;entryDy=0;" edge="1" parent="1" source="xNPvfq1fxMJgjm_zQKp6-96" target="xNPvfq1fxMJgjm_zQKp6-98">
          <mxGeometry relative="1" as="geometry">
            <mxPoint x="124.5" y="650.5" as="sourcePoint" />
            <mxPoint x="116" y="598.5" as="targetPoint" />
          </mxGeometry>
        </mxCell>
        <mxCell id="xNPvfq1fxMJgjm_zQKp6-100" value="Аналіз даних" style="fontFamily=Helvetica;fontSize=14;" vertex="1" parent="1">
          <mxGeometry x="4" y="662.25" width="82" height="60" as="geometry" />
        </mxCell>
        <mxCell id="xNPvfq1fxMJgjm_zQKp6-101" value="Отрим. актуал.&#xa; інформацію" style="fontFamily=Helvetica;fontSize=14;" vertex="1" parent="1">
          <mxGeometry x="4" y="741" width="82" height="60" as="geometry" />
        </mxCell>
        <mxCell id="xNPvfq1fxMJgjm_zQKp6-102" value="" style="edgeStyle=none;rounded=1;jumpStyle=none;html=1;shadow=0;labelBackgroundColor=none;startArrow=none;startFill=0;jettySize=auto;orthogonalLoop=1;strokeColor=#12AAB5;strokeWidth=3;fontFamily=Helvetica;fontSize=14;fontColor=#FFFFFF;spacing=5;fontStyle=1;fillColor=#b0e3e6;entryX=1.008;entryY=0.406;entryDx=0;entryDy=0;entryPerimeter=0;exitX=0.5;exitY=1;exitDx=0;exitDy=0;" edge="1" parent="1" source="xNPvfq1fxMJgjm_zQKp6-97" target="xNPvfq1fxMJgjm_zQKp6-101">
          <mxGeometry relative="1" as="geometry">
            <mxPoint x="117" y="879.5" as="sourcePoint" />
            <mxPoint x="40" y="903.6234567901233" as="targetPoint" />
          </mxGeometry>
        </mxCell>
        <mxCell id="xNPvfq1fxMJgjm_zQKp6-103" value="" style="edgeStyle=none;rounded=1;jumpStyle=none;html=1;shadow=0;labelBackgroundColor=none;startArrow=none;startFill=0;jettySize=auto;orthogonalLoop=1;strokeColor=#12AAB5;strokeWidth=3;fontFamily=Helvetica;fontSize=14;fontColor=#FFFFFF;spacing=5;fontStyle=1;fillColor=#b0e3e6;entryX=1;entryY=0.5;entryDx=0;entryDy=0;" edge="1" parent="1" source="xNPvfq1fxMJgjm_zQKp6-105" target="xNPvfq1fxMJgjm_zQKp6-100">
          <mxGeometry relative="1" as="geometry">
            <mxPoint x="-0.9999999999995453" y="692.0178571428571" as="sourcePoint" />
            <mxPoint x="152" y="889.5" as="targetPoint" />
          </mxGeometry>
        </mxCell>
        <mxCell id="xNPvfq1fxMJgjm_zQKp6-104" value="Обробляється" style="rounded=1;whiteSpace=wrap;html=1;shadow=0;fillColor=#fae8e6;fontFamily=Helvetica;fontSize=14;fontColor=#000000;align=center;spacing=5;fontStyle=0;arcSize=7;perimeterSpacing=2;direction=south;" vertex="1" parent="1">
          <mxGeometry x="115" y="432" width="106" height="60" as="geometry" />
        </mxCell>
        <mxCell id="xNPvfq1fxMJgjm_zQKp6-105" value="Обробляється" style="rounded=1;whiteSpace=wrap;html=1;shadow=0;fillColor=#fae8e6;fontFamily=Helvetica;fontSize=14;fontColor=#000000;align=center;spacing=5;fontStyle=0;arcSize=7;perimeterSpacing=2;direction=south;" vertex="1" parent="1">
          <mxGeometry x="111" y="661" width="106" height="60" as="geometry" />
        </mxCell>
        <mxCell id="xNPvfq1fxMJgjm_zQKp6-106" value="Приходить" style="rounded=1;whiteSpace=wrap;html=1;shadow=0;fillColor=#fae8e6;fontFamily=Helvetica;fontSize=14;fontColor=#000000;align=center;spacing=5;fontStyle=0;arcSize=7;perimeterSpacing=2;direction=south;" vertex="1" parent="1">
          <mxGeometry x="120" y="280" width="84" height="58" as="geometry" />
        </mxCell>
        <mxCell id="xNPvfq1fxMJgjm_zQKp6-107" value="Обробляється" style="rounded=1;whiteSpace=wrap;html=1;shadow=0;fillColor=#fae8e6;fontFamily=Helvetica;fontSize=14;fontColor=#000000;align=center;spacing=5;fontStyle=0;arcSize=7;perimeterSpacing=2;direction=south;" vertex="1" parent="1">
          <mxGeometry x="16" y="162.5" width="110" height="59" as="geometry" />
        </mxCell>
        <mxCell id="xNPvfq1fxMJgjm_zQKp6-108" value="Виходить" style="rounded=1;whiteSpace=wrap;html=1;shadow=0;fillColor=#fae8e6;fontFamily=Helvetica;fontSize=14;fontColor=#000000;align=center;spacing=5;fontStyle=0;arcSize=7;perimeterSpacing=2;direction=south;" vertex="1" parent="1">
          <mxGeometry x="148" y="161.5" width="84" height="60" as="geometry" />
        </mxCell>
        <mxCell id="xNPvfq1fxMJgjm_zQKp6-109" value="" style="edgeStyle=none;rounded=1;jumpStyle=none;html=1;shadow=0;labelBackgroundColor=none;startArrow=none;startFill=0;jettySize=auto;orthogonalLoop=1;strokeColor=#12AAB5;strokeWidth=3;fontFamily=Helvetica;fontSize=14;fontColor=#FFFFFF;spacing=5;fontStyle=1;fillColor=#b0e3e6;exitX=0;exitY=0.5;exitDx=0;exitDy=0;entryX=0.5;entryY=0;entryDx=0;entryDy=0;" edge="1" parent="1" source="xNPvfq1fxMJgjm_zQKp6-39" target="xNPvfq1fxMJgjm_zQKp6-106">
          <mxGeometry relative="1" as="geometry">
            <mxPoint x="379" y="323" as="sourcePoint" />
            <mxPoint x="427" y="252.9999999999999" as="targetPoint" />
          </mxGeometry>
        </mxCell>
        <mxCell id="xNPvfq1fxMJgjm_zQKp6-110" value="" style="edgeStyle=none;rounded=1;jumpStyle=none;html=1;shadow=0;labelBackgroundColor=none;startArrow=none;startFill=0;jettySize=auto;orthogonalLoop=1;strokeColor=#12AAB5;strokeWidth=3;fontFamily=Helvetica;fontSize=14;fontColor=#FFFFFF;spacing=5;fontStyle=1;fillColor=#b0e3e6;exitX=0;exitY=0;exitDx=0;exitDy=0;" edge="1" parent="1" source="xNPvfq1fxMJgjm_zQKp6-39" target="xNPvfq1fxMJgjm_zQKp6-107">
          <mxGeometry relative="1" as="geometry">
            <mxPoint x="378.5340000000001" y="324.9759999999999" as="sourcePoint" />
            <mxPoint x="457.6925086139822" y="263.9999999999999" as="targetPoint" />
          </mxGeometry>
        </mxCell>
        <mxCell id="xNPvfq1fxMJgjm_zQKp6-111" value="Бажання &#xa;знати " style="fontFamily=Helvetica;fontSize=14;" vertex="1" parent="1">
          <mxGeometry x="7" y="279" width="82" height="60" as="geometry" />
        </mxCell>
        <mxCell id="xNPvfq1fxMJgjm_zQKp6-112" value="" style="edgeStyle=none;rounded=1;jumpStyle=none;html=1;shadow=0;labelBackgroundColor=none;startArrow=none;startFill=0;jettySize=auto;orthogonalLoop=1;strokeColor=#12AAB5;strokeWidth=3;fontFamily=Helvetica;fontSize=14;fontColor=#FFFFFF;spacing=5;fontStyle=1;fillColor=#b0e3e6;entryX=1;entryY=0.5;entryDx=0;entryDy=0;" edge="1" parent="1" source="xNPvfq1fxMJgjm_zQKp6-106" target="xNPvfq1fxMJgjm_zQKp6-111">
          <mxGeometry relative="1" as="geometry">
            <mxPoint x="479.5" y="342" as="sourcePoint" />
            <mxPoint x="471" y="290" as="targetPoint" />
          </mxGeometry>
        </mxCell>
        <mxCell id="xNPvfq1fxMJgjm_zQKp6-113" value="вивчення &#xa;даних" style="fontFamily=Helvetica;fontSize=14;" vertex="1" parent="1">
          <mxGeometry x="28" y="74" width="82" height="60" as="geometry" />
        </mxCell>
        <mxCell id="xNPvfq1fxMJgjm_zQKp6-114" value="Збагачення &#xa;знань" style="fontFamily=Helvetica;fontSize=14;" vertex="1" parent="1">
          <mxGeometry x="126" y="74" width="82" height="60" as="geometry" />
        </mxCell>
        <mxCell id="xNPvfq1fxMJgjm_zQKp6-115" value="" style="edgeStyle=none;rounded=1;jumpStyle=none;html=1;shadow=0;labelBackgroundColor=none;startArrow=none;startFill=0;jettySize=auto;orthogonalLoop=1;strokeColor=#12AAB5;strokeWidth=3;fontFamily=Helvetica;fontSize=14;fontColor=#FFFFFF;spacing=5;fontStyle=1;fillColor=#b0e3e6;" edge="1" parent="1" source="xNPvfq1fxMJgjm_zQKp6-108" target="xNPvfq1fxMJgjm_zQKp6-114">
          <mxGeometry relative="1" as="geometry">
            <mxPoint x="344" y="270" as="sourcePoint" />
            <mxPoint x="-53" y="123" as="targetPoint" />
          </mxGeometry>
        </mxCell>
        <mxCell id="xNPvfq1fxMJgjm_zQKp6-116" value="" style="edgeStyle=none;rounded=1;jumpStyle=none;html=1;shadow=0;labelBackgroundColor=none;startArrow=none;startFill=0;jettySize=auto;orthogonalLoop=1;strokeColor=#12AAB5;strokeWidth=3;fontFamily=Helvetica;fontSize=14;fontColor=#FFFFFF;spacing=5;fontStyle=1;fillColor=#b0e3e6;" edge="1" parent="1" source="xNPvfq1fxMJgjm_zQKp6-107" target="xNPvfq1fxMJgjm_zQKp6-113">
          <mxGeometry relative="1" as="geometry">
            <mxPoint x="516" y="280" as="sourcePoint" />
            <mxPoint x="541" y="280" as="targetPoint" />
          </mxGeometry>
        </mxCell>
        <mxCell id="xNPvfq1fxMJgjm_zQKp6-117" value="Приходить" style="rounded=1;whiteSpace=wrap;html=1;shadow=0;fillColor=#f2f9fa;fontFamily=Helvetica;fontSize=14;fontColor=#000000;align=center;spacing=5;fontStyle=0;arcSize=7;perimeterSpacing=2;" vertex="1" parent="1">
          <mxGeometry x="512" y="910" width="82" height="60" as="geometry" />
        </mxCell>
        <mxCell id="xNPvfq1fxMJgjm_zQKp6-118" value="Обробляється" style="rounded=1;whiteSpace=wrap;html=1;shadow=0;fillColor=#f2f9fa;fontFamily=Helvetica;fontSize=14;fontColor=#000000;align=center;spacing=5;fontStyle=0;arcSize=7;perimeterSpacing=2;" vertex="1" parent="1">
          <mxGeometry x="383" y="936" width="106" height="60" as="geometry" />
        </mxCell>
        <mxCell id="xNPvfq1fxMJgjm_zQKp6-119" value="Виходить" style="rounded=1;whiteSpace=wrap;html=1;shadow=0;fillColor=#f2f9fa;fontFamily=Helvetica;fontSize=14;fontColor=#000000;align=center;spacing=5;fontStyle=0;arcSize=7;perimeterSpacing=2;" vertex="1" parent="1">
          <mxGeometry x="284" y="923" width="84" height="60" as="geometry" />
        </mxCell>
        <mxCell id="xNPvfq1fxMJgjm_zQKp6-120" value="" style="edgeStyle=none;rounded=1;jumpStyle=none;html=1;shadow=0;labelBackgroundColor=none;startArrow=none;startFill=0;jettySize=auto;orthogonalLoop=1;strokeColor=#12AAB5;strokeWidth=3;fontFamily=Helvetica;fontSize=14;fontColor=#FFFFFF;spacing=5;fontStyle=1;fillColor=#b0e3e6;" edge="1" parent="1" source="xNPvfq1fxMJgjm_zQKp6-31" target="xNPvfq1fxMJgjm_zQKp6-117">
          <mxGeometry relative="1" as="geometry">
            <mxPoint x="274" y="778" as="sourcePoint" />
            <mxPoint x="519.8900000000001" y="899.5" as="targetPoint" />
          </mxGeometry>
        </mxCell>
        <mxCell id="xNPvfq1fxMJgjm_zQKp6-121" value="" style="edgeStyle=none;rounded=1;jumpStyle=none;html=1;shadow=0;labelBackgroundColor=none;startArrow=none;startFill=0;jettySize=auto;orthogonalLoop=1;strokeColor=#12AAB5;strokeWidth=3;fontFamily=Helvetica;fontSize=14;fontColor=#FFFFFF;spacing=5;fontStyle=1;fillColor=#b0e3e6;exitX=0.177;exitY=0.953;exitDx=0;exitDy=0;exitPerimeter=0;" edge="1" parent="1" source="xNPvfq1fxMJgjm_zQKp6-31" target="xNPvfq1fxMJgjm_zQKp6-118">
          <mxGeometry relative="1" as="geometry">
            <mxPoint x="237.50000000000045" y="794" as="sourcePoint" />
            <mxPoint x="432.5825086139821" y="1168.5" as="targetPoint" />
          </mxGeometry>
        </mxCell>
        <mxCell id="xNPvfq1fxMJgjm_zQKp6-122" value="" style="edgeStyle=none;rounded=1;jumpStyle=none;html=1;shadow=0;labelBackgroundColor=none;startArrow=none;startFill=0;jettySize=auto;orthogonalLoop=1;strokeColor=#12AAB5;strokeWidth=3;fontFamily=Helvetica;fontSize=14;fontColor=#FFFFFF;spacing=5;fontStyle=1;fillColor=#b0e3e6;exitX=0;exitY=0.5;exitDx=0;exitDy=0;" edge="1" parent="1" source="xNPvfq1fxMJgjm_zQKp6-31" target="xNPvfq1fxMJgjm_zQKp6-119">
          <mxGeometry relative="1" as="geometry">
            <mxPoint x="219.25" y="794" as="sourcePoint" />
            <mxPoint x="439.8899999999999" y="1229.6234567901233" as="targetPoint" />
          </mxGeometry>
        </mxCell>
        <mxCell id="xNPvfq1fxMJgjm_zQKp6-123" value="Небезпека" style="fontFamily=Helvetica;fontSize=14;" vertex="1" parent="1">
          <mxGeometry x="454" y="1036" width="82" height="60" as="geometry" />
        </mxCell>
        <mxCell id="xNPvfq1fxMJgjm_zQKp6-124" value="" style="edgeStyle=none;rounded=1;jumpStyle=none;html=1;shadow=0;labelBackgroundColor=none;startArrow=none;startFill=0;jettySize=auto;orthogonalLoop=1;strokeColor=#12AAB5;strokeWidth=3;fontFamily=Helvetica;fontSize=14;fontColor=#FFFFFF;spacing=5;fontStyle=1;fillColor=#b0e3e6;" edge="1" parent="1" source="xNPvfq1fxMJgjm_zQKp6-117">
          <mxGeometry relative="1" as="geometry">
            <mxPoint x="370.3900000000001" y="993.5" as="sourcePoint" />
            <mxPoint x="514" y="1030" as="targetPoint" />
          </mxGeometry>
        </mxCell>
        <mxCell id="xNPvfq1fxMJgjm_zQKp6-125" value="Навчання" style="fontFamily=Helvetica;fontSize=14;" vertex="1" parent="1">
          <mxGeometry x="356" y="1036" width="82" height="60" as="geometry" />
        </mxCell>
        <mxCell id="xNPvfq1fxMJgjm_zQKp6-126" value="Зменшення &#xa;ризиків" style="fontFamily=Helvetica;fontSize=14;" vertex="1" parent="1">
          <mxGeometry x="260" y="1036" width="82" height="60" as="geometry" />
        </mxCell>
        <mxCell id="xNPvfq1fxMJgjm_zQKp6-127" value="" style="edgeStyle=none;rounded=1;jumpStyle=none;html=1;shadow=0;labelBackgroundColor=none;startArrow=none;startFill=0;jettySize=auto;orthogonalLoop=1;strokeColor=#12AAB5;strokeWidth=3;fontFamily=Helvetica;fontSize=14;fontColor=#FFFFFF;spacing=5;fontStyle=1;fillColor=#b0e3e6;entryX=0.5;entryY=0;entryDx=0;entryDy=0;" edge="1" parent="1" source="xNPvfq1fxMJgjm_zQKp6-119" target="xNPvfq1fxMJgjm_zQKp6-126">
          <mxGeometry relative="1" as="geometry">
            <mxPoint x="432.5" y="1257.5" as="sourcePoint" />
            <mxPoint x="355.5" y="1281.6234567901233" as="targetPoint" />
          </mxGeometry>
        </mxCell>
        <mxCell id="xNPvfq1fxMJgjm_zQKp6-128" value="" style="edgeStyle=none;rounded=1;jumpStyle=none;html=1;shadow=0;labelBackgroundColor=none;startArrow=none;startFill=0;jettySize=auto;orthogonalLoop=1;strokeColor=#12AAB5;strokeWidth=3;fontFamily=Helvetica;fontSize=14;fontColor=#FFFFFF;spacing=5;fontStyle=1;fillColor=#b0e3e6;exitX=0.25;exitY=1;exitDx=0;exitDy=0;" edge="1" parent="1" source="xNPvfq1fxMJgjm_zQKp6-118" target="xNPvfq1fxMJgjm_zQKp6-125">
          <mxGeometry relative="1" as="geometry">
            <mxPoint x="386.96000000000004" y="998" as="sourcePoint" />
            <mxPoint x="544.8900000000001" y="1232.5" as="targetPoint" />
          </mxGeometry>
        </mxCell>
        <mxCell id="xNPvfq1fxMJgjm_zQKp6-129" value="" style="edgeStyle=none;rounded=1;jumpStyle=none;html=1;shadow=0;labelBackgroundColor=none;startArrow=none;startFill=0;jettySize=auto;orthogonalLoop=1;strokeColor=#12AAB5;strokeWidth=3;fontFamily=Helvetica;fontSize=14;fontColor=#FFFFFF;spacing=5;fontStyle=1;fillColor=#b0e3e6;entryX=0.5;entryY=0;entryDx=0;entryDy=0;" edge="1" parent="1" source="xNPvfq1fxMJgjm_zQKp6-41" target="xNPvfq1fxMJgjm_zQKp6-88">
          <mxGeometry relative="1" as="geometry">
            <mxPoint x="107" y="368.9113924050632" as="sourcePoint" />
            <mxPoint x="71.00000000000045" y="368" as="targetPoint" />
          </mxGeometry>
        </mxCell>
        <mxCell id="xNPvfq1fxMJgjm_zQKp6-130" value="" style="edgeStyle=none;rounded=1;jumpStyle=none;html=1;shadow=0;labelBackgroundColor=none;startArrow=none;startFill=0;jettySize=auto;orthogonalLoop=1;strokeColor=#12AAB5;strokeWidth=3;fontFamily=Helvetica;fontSize=14;fontColor=#FFFFFF;spacing=5;fontStyle=1;fillColor=#b0e3e6;entryX=0.5;entryY=0;entryDx=0;entryDy=0;exitX=0;exitY=0.5;exitDx=0;exitDy=0;" edge="1" parent="1" source="xNPvfq1fxMJgjm_zQKp6-41" target="xNPvfq1fxMJgjm_zQKp6-104">
          <mxGeometry relative="1" as="geometry">
            <mxPoint x="248.37142857142817" y="442.9999999999998" as="sourcePoint" />
            <mxPoint x="193" y="385.9999999999998" as="targetPoint" />
          </mxGeometry>
        </mxCell>
        <mxCell id="xNPvfq1fxMJgjm_zQKp6-131" value="" style="edgeStyle=none;rounded=1;jumpStyle=none;html=1;shadow=0;labelBackgroundColor=none;startArrow=none;startFill=0;jettySize=auto;orthogonalLoop=1;strokeColor=#12AAB5;strokeWidth=3;fontFamily=Helvetica;fontSize=14;fontColor=#FFFFFF;spacing=5;fontStyle=1;fillColor=#b0e3e6;entryX=0.5;entryY=0;entryDx=0;entryDy=0;exitX=0;exitY=0.75;exitDx=0;exitDy=0;" edge="1" parent="1" source="xNPvfq1fxMJgjm_zQKp6-41" target="xNPvfq1fxMJgjm_zQKp6-89">
          <mxGeometry relative="1" as="geometry">
            <mxPoint x="249" y="485" as="sourcePoint" />
            <mxPoint x="203" y="395.9999999999998" as="targetPoint" />
          </mxGeometry>
        </mxCell>
        <mxCell id="xNPvfq1fxMJgjm_zQKp6-132" value="" style="edgeStyle=none;rounded=1;jumpStyle=none;html=1;shadow=0;labelBackgroundColor=none;startArrow=none;startFill=0;jettySize=auto;orthogonalLoop=1;strokeColor=#12AAB5;strokeWidth=3;fontFamily=Helvetica;fontSize=14;fontColor=#FFFFFF;spacing=5;fontStyle=1;fillColor=#b0e3e6;exitX=0;exitY=0.25;exitDx=0;exitDy=0;" edge="1" parent="1" source="xNPvfq1fxMJgjm_zQKp6-43" target="xNPvfq1fxMJgjm_zQKp6-96">
          <mxGeometry relative="1" as="geometry">
            <mxPoint x="257" y="623" as="sourcePoint" />
            <mxPoint x="213" y="405.9999999999998" as="targetPoint" />
          </mxGeometry>
        </mxCell>
        <mxCell id="xNPvfq1fxMJgjm_zQKp6-133" value="" style="edgeStyle=none;rounded=1;jumpStyle=none;html=1;shadow=0;labelBackgroundColor=none;startArrow=none;startFill=0;jettySize=auto;orthogonalLoop=1;strokeColor=#12AAB5;strokeWidth=3;fontFamily=Helvetica;fontSize=14;fontColor=#FFFFFF;spacing=5;fontStyle=1;fillColor=#b0e3e6;entryX=0.5;entryY=0;entryDx=0;entryDy=0;exitX=0;exitY=0.75;exitDx=0;exitDy=0;" edge="1" parent="1" source="xNPvfq1fxMJgjm_zQKp6-43" target="xNPvfq1fxMJgjm_zQKp6-105">
          <mxGeometry relative="1" as="geometry">
            <mxPoint x="278.37142857142817" y="472.9999999999998" as="sourcePoint" />
            <mxPoint x="223" y="415.9999999999998" as="targetPoint" />
          </mxGeometry>
        </mxCell>
        <mxCell id="xNPvfq1fxMJgjm_zQKp6-134" value="" style="edgeStyle=none;rounded=1;jumpStyle=none;html=1;shadow=0;labelBackgroundColor=none;startArrow=none;startFill=0;jettySize=auto;orthogonalLoop=1;strokeColor=#12AAB5;strokeWidth=3;fontFamily=Helvetica;fontSize=14;fontColor=#FFFFFF;spacing=5;fontStyle=1;fillColor=#b0e3e6;entryX=0.5;entryY=0;entryDx=0;entryDy=0;exitX=0.25;exitY=1;exitDx=0;exitDy=0;" edge="1" parent="1" source="xNPvfq1fxMJgjm_zQKp6-43" target="xNPvfq1fxMJgjm_zQKp6-97">
          <mxGeometry relative="1" as="geometry">
            <mxPoint x="257" y="676" as="sourcePoint" />
            <mxPoint x="233" y="425.9999999999998" as="targetPoint" />
          </mxGeometry>
        </mxCell>
        <mxCell id="xNPvfq1fxMJgjm_zQKp6-135" value="Приходить" style="rounded=1;whiteSpace=wrap;html=1;shadow=0;fillColor=#f2f9fa;fontFamily=Helvetica;fontSize=14;fontColor=#000000;align=center;spacing=5;fontStyle=0;arcSize=7;perimeterSpacing=2;" vertex="1" parent="1">
          <mxGeometry x="1319.5" y="940" width="82" height="60" as="geometry" />
        </mxCell>
        <mxCell id="xNPvfq1fxMJgjm_zQKp6-136" value="Обробляється" style="rounded=1;whiteSpace=wrap;html=1;shadow=0;fillColor=#f2f9fa;fontFamily=Helvetica;fontSize=14;fontColor=#000000;align=center;spacing=5;fontStyle=0;arcSize=7;perimeterSpacing=2;" vertex="1" parent="1">
          <mxGeometry x="1195" y="936" width="106" height="60" as="geometry" />
        </mxCell>
        <mxCell id="xNPvfq1fxMJgjm_zQKp6-137" value="Виходить" style="rounded=1;whiteSpace=wrap;html=1;shadow=0;fillColor=#f2f9fa;fontFamily=Helvetica;fontSize=14;fontColor=#000000;align=center;spacing=5;fontStyle=0;arcSize=7;perimeterSpacing=2;" vertex="1" parent="1">
          <mxGeometry x="1096" y="910" width="84" height="60" as="geometry" />
        </mxCell>
        <mxCell id="xNPvfq1fxMJgjm_zQKp6-138" value="" style="edgeStyle=none;rounded=1;jumpStyle=none;html=1;shadow=0;labelBackgroundColor=none;startArrow=none;startFill=0;jettySize=auto;orthogonalLoop=1;strokeColor=#12AAB5;strokeWidth=3;fontFamily=Helvetica;fontSize=14;fontColor=#FFFFFF;spacing=5;fontStyle=1;fillColor=#b0e3e6;exitX=1;exitY=0.75;exitDx=0;exitDy=0;entryX=0.5;entryY=0;entryDx=0;entryDy=0;" edge="1" parent="1" source="xNPvfq1fxMJgjm_zQKp6-37" target="xNPvfq1fxMJgjm_zQKp6-135">
          <mxGeometry relative="1" as="geometry">
            <mxPoint x="1233.4999999999995" y="928" as="sourcePoint" />
            <mxPoint x="1479.39" y="1049.5" as="targetPoint" />
          </mxGeometry>
        </mxCell>
        <mxCell id="xNPvfq1fxMJgjm_zQKp6-139" value="" style="edgeStyle=none;rounded=1;jumpStyle=none;html=1;shadow=0;labelBackgroundColor=none;startArrow=none;startFill=0;jettySize=auto;orthogonalLoop=1;strokeColor=#12AAB5;strokeWidth=3;fontFamily=Helvetica;fontSize=14;fontColor=#FFFFFF;spacing=5;fontStyle=1;fillColor=#b0e3e6;exitX=0.75;exitY=1;exitDx=0;exitDy=0;entryX=0.5;entryY=0;entryDx=0;entryDy=0;" edge="1" parent="1" source="xNPvfq1fxMJgjm_zQKp6-37" target="xNPvfq1fxMJgjm_zQKp6-136">
          <mxGeometry relative="1" as="geometry">
            <mxPoint x="1197" y="943.9999999999998" as="sourcePoint" />
            <mxPoint x="1392.082508613982" y="1318.5" as="targetPoint" />
          </mxGeometry>
        </mxCell>
        <mxCell id="xNPvfq1fxMJgjm_zQKp6-140" value="" style="edgeStyle=none;rounded=1;jumpStyle=none;html=1;shadow=0;labelBackgroundColor=none;startArrow=none;startFill=0;jettySize=auto;orthogonalLoop=1;strokeColor=#12AAB5;strokeWidth=3;fontFamily=Helvetica;fontSize=14;fontColor=#FFFFFF;spacing=5;fontStyle=1;fillColor=#b0e3e6;exitX=0.5;exitY=1;exitDx=0;exitDy=0;" edge="1" parent="1" source="xNPvfq1fxMJgjm_zQKp6-37" target="xNPvfq1fxMJgjm_zQKp6-137">
          <mxGeometry relative="1" as="geometry">
            <mxPoint x="1178.75" y="943.9999999999998" as="sourcePoint" />
            <mxPoint x="1399.3899999999999" y="1379.6234567901233" as="targetPoint" />
          </mxGeometry>
        </mxCell>
        <mxCell id="xNPvfq1fxMJgjm_zQKp6-141" value="Психологічні&#xa;сигнали" style="fontFamily=Helvetica;fontSize=14;" vertex="1" parent="1">
          <mxGeometry x="1347" y="1036" width="82" height="60" as="geometry" />
        </mxCell>
        <mxCell id="xNPvfq1fxMJgjm_zQKp6-142" value="" style="edgeStyle=none;rounded=1;jumpStyle=none;html=1;shadow=0;labelBackgroundColor=none;startArrow=none;startFill=0;jettySize=auto;orthogonalLoop=1;strokeColor=#12AAB5;strokeWidth=3;fontFamily=Helvetica;fontSize=14;fontColor=#FFFFFF;spacing=5;fontStyle=1;fillColor=#b0e3e6;entryX=0.25;entryY=0;entryDx=0;entryDy=0;" edge="1" parent="1" source="xNPvfq1fxMJgjm_zQKp6-135" target="xNPvfq1fxMJgjm_zQKp6-141">
          <mxGeometry relative="1" as="geometry">
            <mxPoint x="1329.89" y="1143.5" as="sourcePoint" />
            <mxPoint x="1321.39" y="1091.5" as="targetPoint" />
          </mxGeometry>
        </mxCell>
        <mxCell id="xNPvfq1fxMJgjm_zQKp6-143" value="Заплановані &#xa;дії" style="fontFamily=Helvetica;fontSize=14;" vertex="1" parent="1">
          <mxGeometry x="1249" y="1036" width="82" height="60" as="geometry" />
        </mxCell>
        <mxCell id="xNPvfq1fxMJgjm_zQKp6-144" value="Зменшення &#xa;ризиків" style="fontFamily=Helvetica;fontSize=14;" vertex="1" parent="1">
          <mxGeometry x="1151.5" y="1036" width="82" height="60" as="geometry" />
        </mxCell>
        <mxCell id="xNPvfq1fxMJgjm_zQKp6-145" value="" style="edgeStyle=none;rounded=1;jumpStyle=none;html=1;shadow=0;labelBackgroundColor=none;startArrow=none;startFill=0;jettySize=auto;orthogonalLoop=1;strokeColor=#12AAB5;strokeWidth=3;fontFamily=Helvetica;fontSize=14;fontColor=#FFFFFF;spacing=5;fontStyle=1;fillColor=#b0e3e6;entryX=0.5;entryY=0;entryDx=0;entryDy=0;" edge="1" parent="1" source="xNPvfq1fxMJgjm_zQKp6-137" target="xNPvfq1fxMJgjm_zQKp6-144">
          <mxGeometry relative="1" as="geometry">
            <mxPoint x="1392" y="1407.5" as="sourcePoint" />
            <mxPoint x="1315" y="1431.6234567901233" as="targetPoint" />
          </mxGeometry>
        </mxCell>
        <mxCell id="xNPvfq1fxMJgjm_zQKp6-146" value="" style="edgeStyle=none;rounded=1;jumpStyle=none;html=1;shadow=0;labelBackgroundColor=none;startArrow=none;startFill=0;jettySize=auto;orthogonalLoop=1;strokeColor=#12AAB5;strokeWidth=3;fontFamily=Helvetica;fontSize=14;fontColor=#FFFFFF;spacing=5;fontStyle=1;fillColor=#b0e3e6;" edge="1" parent="1" source="xNPvfq1fxMJgjm_zQKp6-136" target="xNPvfq1fxMJgjm_zQKp6-143">
          <mxGeometry relative="1" as="geometry">
            <mxPoint x="1494.39" y="1382.5" as="sourcePoint" />
            <mxPoint x="1519.39" y="1382.5" as="targetPoint" />
          </mxGeometry>
        </mxCell>
        <mxCell id="xNPvfq1fxMJgjm_zQKp6-147" value="Приходить" style="rounded=1;whiteSpace=wrap;html=1;shadow=0;fillColor=#f2f9fa;fontFamily=Helvetica;fontSize=14;fontColor=#000000;align=center;spacing=5;fontStyle=0;arcSize=7;perimeterSpacing=2;" vertex="1" parent="1">
          <mxGeometry x="1014" y="832" width="82" height="60" as="geometry" />
        </mxCell>
        <mxCell id="xNPvfq1fxMJgjm_zQKp6-148" value="Обробляється" style="rounded=1;whiteSpace=wrap;html=1;shadow=0;fillColor=#f2f9fa;fontFamily=Helvetica;fontSize=14;fontColor=#000000;align=center;spacing=5;fontStyle=0;arcSize=7;perimeterSpacing=2;" vertex="1" parent="1">
          <mxGeometry x="942" y="923" width="106" height="60" as="geometry" />
        </mxCell>
        <mxCell id="xNPvfq1fxMJgjm_zQKp6-149" value="Виходить" style="rounded=1;whiteSpace=wrap;html=1;shadow=0;fillColor=#f2f9fa;fontFamily=Helvetica;fontSize=14;fontColor=#000000;align=center;spacing=5;fontStyle=0;arcSize=7;perimeterSpacing=2;" vertex="1" parent="1">
          <mxGeometry x="847" y="923" width="84" height="60" as="geometry" />
        </mxCell>
        <mxCell id="xNPvfq1fxMJgjm_zQKp6-150" value="" style="edgeStyle=none;rounded=1;jumpStyle=none;html=1;shadow=0;labelBackgroundColor=none;startArrow=none;startFill=0;jettySize=auto;orthogonalLoop=1;strokeColor=#12AAB5;strokeWidth=3;fontFamily=Helvetica;fontSize=14;fontColor=#FFFFFF;spacing=5;fontStyle=1;fillColor=#b0e3e6;exitX=1;exitY=0.5;exitDx=0;exitDy=0;" edge="1" parent="1" source="xNPvfq1fxMJgjm_zQKp6-35" target="xNPvfq1fxMJgjm_zQKp6-147">
          <mxGeometry relative="1" as="geometry">
            <mxPoint x="789" y="850.9999999999998" as="sourcePoint" />
            <mxPoint x="1002.3900000000001" y="1083.5" as="targetPoint" />
          </mxGeometry>
        </mxCell>
        <mxCell id="xNPvfq1fxMJgjm_zQKp6-151" value="" style="edgeStyle=none;rounded=1;jumpStyle=none;html=1;shadow=0;labelBackgroundColor=none;startArrow=none;startFill=0;jettySize=auto;orthogonalLoop=1;strokeColor=#12AAB5;strokeWidth=3;fontFamily=Helvetica;fontSize=14;fontColor=#FFFFFF;spacing=5;fontStyle=1;fillColor=#b0e3e6;exitX=0.867;exitY=0.984;exitDx=0;exitDy=0;exitPerimeter=0;" edge="1" parent="1" source="xNPvfq1fxMJgjm_zQKp6-35" target="xNPvfq1fxMJgjm_zQKp6-148">
          <mxGeometry relative="1" as="geometry">
            <mxPoint x="769.25" y="866.9999999999998" as="sourcePoint" />
            <mxPoint x="915.0825086139821" y="1352.5" as="targetPoint" />
          </mxGeometry>
        </mxCell>
        <mxCell id="xNPvfq1fxMJgjm_zQKp6-152" value="" style="edgeStyle=none;rounded=1;jumpStyle=none;html=1;shadow=0;labelBackgroundColor=none;startArrow=none;startFill=0;jettySize=auto;orthogonalLoop=1;strokeColor=#12AAB5;strokeWidth=3;fontFamily=Helvetica;fontSize=14;fontColor=#FFFFFF;spacing=5;fontStyle=1;fillColor=#b0e3e6;exitX=0.25;exitY=1;exitDx=0;exitDy=0;" edge="1" parent="1" source="xNPvfq1fxMJgjm_zQKp6-35" target="xNPvfq1fxMJgjm_zQKp6-149">
          <mxGeometry relative="1" as="geometry">
            <mxPoint x="749.5" y="866.9999999999998" as="sourcePoint" />
            <mxPoint x="922.3899999999999" y="1413.6234567901233" as="targetPoint" />
          </mxGeometry>
        </mxCell>
        <mxCell id="xNPvfq1fxMJgjm_zQKp6-153" value="Відчуття &#xa;загрози" style="fontFamily=Helvetica;fontSize=14;" vertex="1" parent="1">
          <mxGeometry x="1050" y="1036" width="82" height="60" as="geometry" />
        </mxCell>
        <mxCell id="xNPvfq1fxMJgjm_zQKp6-154" value="" style="edgeStyle=none;rounded=1;jumpStyle=none;html=1;shadow=0;labelBackgroundColor=none;startArrow=none;startFill=0;jettySize=auto;orthogonalLoop=1;strokeColor=#12AAB5;strokeWidth=3;fontFamily=Helvetica;fontSize=14;fontColor=#FFFFFF;spacing=5;fontStyle=1;fillColor=#b0e3e6;entryX=0.5;entryY=0;entryDx=0;entryDy=0;" edge="1" parent="1" source="xNPvfq1fxMJgjm_zQKp6-147" target="xNPvfq1fxMJgjm_zQKp6-153">
          <mxGeometry relative="1" as="geometry">
            <mxPoint x="852.8900000000001" y="1177.5" as="sourcePoint" />
            <mxPoint x="844.3900000000001" y="1125.5" as="targetPoint" />
          </mxGeometry>
        </mxCell>
        <mxCell id="xNPvfq1fxMJgjm_zQKp6-155" value="Аналіз &#xa;потенц. ризиків" style="fontFamily=Helvetica;fontSize=14;" vertex="1" parent="1">
          <mxGeometry x="954" y="1036" width="82" height="60" as="geometry" />
        </mxCell>
        <mxCell id="xNPvfq1fxMJgjm_zQKp6-156" value="Спокій" style="fontFamily=Helvetica;fontSize=14;" vertex="1" parent="1">
          <mxGeometry x="859.5" y="1036" width="82" height="60" as="geometry" />
        </mxCell>
        <mxCell id="xNPvfq1fxMJgjm_zQKp6-157" value="" style="edgeStyle=none;rounded=1;jumpStyle=none;html=1;shadow=0;labelBackgroundColor=none;startArrow=none;startFill=0;jettySize=auto;orthogonalLoop=1;strokeColor=#12AAB5;strokeWidth=3;fontFamily=Helvetica;fontSize=14;fontColor=#FFFFFF;spacing=5;fontStyle=1;fillColor=#b0e3e6;entryX=0.5;entryY=0;entryDx=0;entryDy=0;" edge="1" parent="1" source="xNPvfq1fxMJgjm_zQKp6-149" target="xNPvfq1fxMJgjm_zQKp6-156">
          <mxGeometry relative="1" as="geometry">
            <mxPoint x="915" y="1441.5" as="sourcePoint" />
            <mxPoint x="838" y="1465.6234567901233" as="targetPoint" />
          </mxGeometry>
        </mxCell>
        <mxCell id="xNPvfq1fxMJgjm_zQKp6-158" value="" style="edgeStyle=none;rounded=1;jumpStyle=none;html=1;shadow=0;labelBackgroundColor=none;startArrow=none;startFill=0;jettySize=auto;orthogonalLoop=1;strokeColor=#12AAB5;strokeWidth=3;fontFamily=Helvetica;fontSize=14;fontColor=#FFFFFF;spacing=5;fontStyle=1;fillColor=#b0e3e6;" edge="1" parent="1" source="xNPvfq1fxMJgjm_zQKp6-148" target="xNPvfq1fxMJgjm_zQKp6-155">
          <mxGeometry relative="1" as="geometry">
            <mxPoint x="1017.3900000000001" y="1416.5" as="sourcePoint" />
            <mxPoint x="1042.39" y="1416.5" as="targetPoint" />
          </mxGeometry>
        </mxCell>
        <mxCell id="xNPvfq1fxMJgjm_zQKp6-159" value="Приходить" style="rounded=1;whiteSpace=wrap;html=1;shadow=0;fillColor=#f2f9fa;fontFamily=Helvetica;fontSize=14;fontColor=#000000;align=center;spacing=5;fontStyle=0;arcSize=7;perimeterSpacing=2;" vertex="1" parent="1">
          <mxGeometry x="746" y="923" width="82" height="60" as="geometry" />
        </mxCell>
        <mxCell id="xNPvfq1fxMJgjm_zQKp6-160" value="Обробляється" style="rounded=1;whiteSpace=wrap;html=1;shadow=0;fillColor=#f2f9fa;fontFamily=Helvetica;fontSize=14;fontColor=#000000;align=center;spacing=5;fontStyle=0;arcSize=7;perimeterSpacing=2;" vertex="1" parent="1">
          <mxGeometry x="634" y="923" width="106" height="60" as="geometry" />
        </mxCell>
        <mxCell id="xNPvfq1fxMJgjm_zQKp6-161" value="Виходить" style="rounded=1;whiteSpace=wrap;html=1;shadow=0;fillColor=#f2f9fa;fontFamily=Helvetica;fontSize=14;fontColor=#000000;align=center;spacing=5;fontStyle=0;arcSize=7;perimeterSpacing=2;" vertex="1" parent="1">
          <mxGeometry x="594" y="832" width="84" height="60" as="geometry" />
        </mxCell>
        <mxCell id="xNPvfq1fxMJgjm_zQKp6-162" value="" style="edgeStyle=none;rounded=1;jumpStyle=none;html=1;shadow=0;labelBackgroundColor=none;startArrow=none;startFill=0;jettySize=auto;orthogonalLoop=1;strokeColor=#12AAB5;strokeWidth=3;fontFamily=Helvetica;fontSize=14;fontColor=#FFFFFF;spacing=5;fontStyle=1;fillColor=#b0e3e6;exitX=0.5;exitY=1;exitDx=0;exitDy=0;" edge="1" parent="1" source="xNPvfq1fxMJgjm_zQKp6-33" target="xNPvfq1fxMJgjm_zQKp6-159">
          <mxGeometry relative="1" as="geometry">
            <mxPoint x="593.75" y="832" as="sourcePoint" />
            <mxPoint x="672.3900000000001" y="1089.5" as="targetPoint" />
          </mxGeometry>
        </mxCell>
        <mxCell id="xNPvfq1fxMJgjm_zQKp6-163" value="" style="edgeStyle=none;rounded=1;jumpStyle=none;html=1;shadow=0;labelBackgroundColor=none;startArrow=none;startFill=0;jettySize=auto;orthogonalLoop=1;strokeColor=#12AAB5;strokeWidth=3;fontFamily=Helvetica;fontSize=14;fontColor=#FFFFFF;spacing=5;fontStyle=1;fillColor=#b0e3e6;exitX=0;exitY=1;exitDx=0;exitDy=0;" edge="1" parent="1" source="xNPvfq1fxMJgjm_zQKp6-33" target="xNPvfq1fxMJgjm_zQKp6-160">
          <mxGeometry relative="1" as="geometry">
            <mxPoint x="574" y="832" as="sourcePoint" />
            <mxPoint x="585.0825086139821" y="1358.5" as="targetPoint" />
          </mxGeometry>
        </mxCell>
        <mxCell id="xNPvfq1fxMJgjm_zQKp6-164" value="" style="edgeStyle=none;rounded=1;jumpStyle=none;html=1;shadow=0;labelBackgroundColor=none;startArrow=none;startFill=0;jettySize=auto;orthogonalLoop=1;strokeColor=#12AAB5;strokeWidth=3;fontFamily=Helvetica;fontSize=14;fontColor=#FFFFFF;spacing=5;fontStyle=1;fillColor=#b0e3e6;exitX=0;exitY=0.5;exitDx=0;exitDy=0;" edge="1" parent="1" source="xNPvfq1fxMJgjm_zQKp6-33" target="xNPvfq1fxMJgjm_zQKp6-161">
          <mxGeometry relative="1" as="geometry">
            <mxPoint x="534.5" y="832" as="sourcePoint" />
            <mxPoint x="592.3899999999999" y="1419.6234567901233" as="targetPoint" />
          </mxGeometry>
        </mxCell>
        <mxCell id="xNPvfq1fxMJgjm_zQKp6-165" value="У загрозливих&#xa;ситуац." style="fontFamily=Helvetica;fontSize=14;" vertex="1" parent="1">
          <mxGeometry x="746" y="1036" width="82" height="60" as="geometry" />
        </mxCell>
        <mxCell id="xNPvfq1fxMJgjm_zQKp6-166" value="" style="edgeStyle=none;rounded=1;jumpStyle=none;html=1;shadow=0;labelBackgroundColor=none;startArrow=none;startFill=0;jettySize=auto;orthogonalLoop=1;strokeColor=#12AAB5;strokeWidth=3;fontFamily=Helvetica;fontSize=14;fontColor=#FFFFFF;spacing=5;fontStyle=1;fillColor=#b0e3e6;entryX=0.5;entryY=0;entryDx=0;entryDy=0;" edge="1" parent="1" source="xNPvfq1fxMJgjm_zQKp6-159" target="xNPvfq1fxMJgjm_zQKp6-165">
          <mxGeometry relative="1" as="geometry">
            <mxPoint x="522.8900000000001" y="1183.5" as="sourcePoint" />
            <mxPoint x="514.3900000000001" y="1131.5" as="targetPoint" />
          </mxGeometry>
        </mxCell>
        <mxCell id="xNPvfq1fxMJgjm_zQKp6-167" value="Планування&#xa;заходів" style="fontFamily=Helvetica;fontSize=14;" vertex="1" parent="1">
          <mxGeometry x="647" y="1036" width="82" height="60" as="geometry" />
        </mxCell>
        <mxCell id="xNPvfq1fxMJgjm_zQKp6-168" value="Психологіч.&#xa;комфорт" style="fontFamily=Helvetica;fontSize=14;" vertex="1" parent="1">
          <mxGeometry x="552" y="1036" width="82" height="60" as="geometry" />
        </mxCell>
        <mxCell id="xNPvfq1fxMJgjm_zQKp6-169" value="" style="edgeStyle=none;rounded=1;jumpStyle=none;html=1;shadow=0;labelBackgroundColor=none;startArrow=none;startFill=0;jettySize=auto;orthogonalLoop=1;strokeColor=#12AAB5;strokeWidth=3;fontFamily=Helvetica;fontSize=14;fontColor=#FFFFFF;spacing=5;fontStyle=1;fillColor=#b0e3e6;entryX=0.5;entryY=0;entryDx=0;entryDy=0;" edge="1" parent="1" source="xNPvfq1fxMJgjm_zQKp6-161" target="xNPvfq1fxMJgjm_zQKp6-168">
          <mxGeometry relative="1" as="geometry">
            <mxPoint x="585" y="1447.5" as="sourcePoint" />
            <mxPoint x="508" y="1471.6234567901233" as="targetPoint" />
          </mxGeometry>
        </mxCell>
        <mxCell id="xNPvfq1fxMJgjm_zQKp6-170" value="" style="edgeStyle=none;rounded=1;jumpStyle=none;html=1;shadow=0;labelBackgroundColor=none;startArrow=none;startFill=0;jettySize=auto;orthogonalLoop=1;strokeColor=#12AAB5;strokeWidth=3;fontFamily=Helvetica;fontSize=14;fontColor=#FFFFFF;spacing=5;fontStyle=1;fillColor=#b0e3e6;" edge="1" parent="1" source="xNPvfq1fxMJgjm_zQKp6-160" target="xNPvfq1fxMJgjm_zQKp6-167">
          <mxGeometry relative="1" as="geometry">
            <mxPoint x="687.3900000000001" y="1422.5" as="sourcePoint" />
            <mxPoint x="712.3900000000001" y="1422.5" as="targetPoint" />
          </mxGeometry>
        </mxCell>
        <mxCell id="xNPvfq1fxMJgjm_zQKp6-171" value="Виходить" style="rounded=1;whiteSpace=wrap;html=1;shadow=0;fillColor=#fae8e6;fontFamily=Helvetica;fontSize=14;fontColor=#000000;align=center;spacing=5;fontStyle=0;arcSize=7;perimeterSpacing=2;direction=south;" vertex="1" parent="1">
          <mxGeometry x="123" y="817.5" width="82" height="60" as="geometry" />
        </mxCell>
        <mxCell id="xNPvfq1fxMJgjm_zQKp6-172" value="Приходить" style="rounded=1;whiteSpace=wrap;html=1;shadow=0;fillColor=#fae8e6;fontFamily=Helvetica;fontSize=14;fontColor=#000000;align=center;spacing=5;fontStyle=0;arcSize=7;perimeterSpacing=2;direction=south;" vertex="1" parent="1">
          <mxGeometry x="176" y="940" width="84" height="60" as="geometry" />
        </mxCell>
        <mxCell id="xNPvfq1fxMJgjm_zQKp6-173" value="Розвиток &#xa;інтелект. навичок" style="fontFamily=Helvetica;fontSize=14;" vertex="1" parent="1">
          <mxGeometry x="4" y="820" width="82" height="60" as="geometry" />
        </mxCell>
        <mxCell id="xNPvfq1fxMJgjm_zQKp6-174" value="" style="edgeStyle=none;rounded=1;jumpStyle=none;html=1;shadow=0;labelBackgroundColor=none;startArrow=none;startFill=0;jettySize=auto;orthogonalLoop=1;strokeColor=#12AAB5;strokeWidth=3;fontFamily=Helvetica;fontSize=14;fontColor=#FFFFFF;spacing=5;fontStyle=1;fillColor=#b0e3e6;entryX=1;entryY=0.5;entryDx=0;entryDy=0;" edge="1" parent="1" source="xNPvfq1fxMJgjm_zQKp6-171" target="xNPvfq1fxMJgjm_zQKp6-173">
          <mxGeometry relative="1" as="geometry">
            <mxPoint x="124.5" y="887.5" as="sourcePoint" />
            <mxPoint x="116" y="835.5" as="targetPoint" />
          </mxGeometry>
        </mxCell>
        <mxCell id="xNPvfq1fxMJgjm_zQKp6-175" value="Пошук &#xa;даних" style="fontFamily=Helvetica;fontSize=14;" vertex="1" parent="1">
          <mxGeometry x="66" y="1036" width="82" height="60" as="geometry" />
        </mxCell>
        <mxCell id="xNPvfq1fxMJgjm_zQKp6-176" value="Цікавість &#xa;світом" style="fontFamily=Helvetica;fontSize=14;" vertex="1" parent="1">
          <mxGeometry x="165" y="1036" width="82" height="60" as="geometry" />
        </mxCell>
        <mxCell id="xNPvfq1fxMJgjm_zQKp6-177" value="" style="edgeStyle=none;rounded=1;jumpStyle=none;html=1;shadow=0;labelBackgroundColor=none;startArrow=none;startFill=0;jettySize=auto;orthogonalLoop=1;strokeColor=#12AAB5;strokeWidth=3;fontFamily=Helvetica;fontSize=14;fontColor=#FFFFFF;spacing=5;fontStyle=1;fillColor=#b0e3e6;entryX=0.5;entryY=0;entryDx=0;entryDy=0;exitX=1;exitY=0.5;exitDx=0;exitDy=0;" edge="1" parent="1" source="xNPvfq1fxMJgjm_zQKp6-172" target="xNPvfq1fxMJgjm_zQKp6-176">
          <mxGeometry relative="1" as="geometry">
            <mxPoint x="176" y="1008" as="sourcePoint" />
            <mxPoint x="181" y="1046" as="targetPoint" />
          </mxGeometry>
        </mxCell>
        <mxCell id="xNPvfq1fxMJgjm_zQKp6-178" value="" style="edgeStyle=none;rounded=1;jumpStyle=none;html=1;shadow=0;labelBackgroundColor=none;startArrow=none;startFill=0;jettySize=auto;orthogonalLoop=1;strokeColor=#12AAB5;strokeWidth=3;fontFamily=Helvetica;fontSize=14;fontColor=#FFFFFF;spacing=5;fontStyle=1;fillColor=#b0e3e6;entryX=0.5;entryY=0;entryDx=0;entryDy=0;exitX=1;exitY=0.5;exitDx=0;exitDy=0;" edge="1" parent="1" source="xNPvfq1fxMJgjm_zQKp6-179" target="xNPvfq1fxMJgjm_zQKp6-175">
          <mxGeometry relative="1" as="geometry">
            <mxPoint x="-76.99999999999955" y="910.0178571428571" as="sourcePoint" />
            <mxPoint x="76" y="1107.5" as="targetPoint" />
          </mxGeometry>
        </mxCell>
        <mxCell id="xNPvfq1fxMJgjm_zQKp6-179" value="Обробляється" style="rounded=1;whiteSpace=wrap;html=1;shadow=0;fillColor=#fae8e6;fontFamily=Helvetica;fontSize=14;fontColor=#000000;align=center;spacing=5;fontStyle=0;arcSize=7;perimeterSpacing=2;direction=south;" vertex="1" parent="1">
          <mxGeometry x="54" y="923" width="106" height="60" as="geometry" />
        </mxCell>
        <mxCell id="xNPvfq1fxMJgjm_zQKp6-180" value="" style="edgeStyle=none;rounded=1;jumpStyle=none;html=1;shadow=0;labelBackgroundColor=none;startArrow=none;startFill=0;jettySize=auto;orthogonalLoop=1;strokeColor=#12AAB5;strokeWidth=3;fontFamily=Helvetica;fontSize=14;fontColor=#FFFFFF;spacing=5;fontStyle=1;fillColor=#b0e3e6;exitX=0;exitY=0.5;exitDx=0;exitDy=0;" edge="1" parent="1" source="xNPvfq1fxMJgjm_zQKp6-45" target="xNPvfq1fxMJgjm_zQKp6-171">
          <mxGeometry relative="1" as="geometry">
            <mxPoint x="233" y="836.8628571428571" as="sourcePoint" />
            <mxPoint x="213" y="642.9999999999998" as="targetPoint" />
          </mxGeometry>
        </mxCell>
        <mxCell id="xNPvfq1fxMJgjm_zQKp6-181" value="" style="edgeStyle=none;rounded=1;jumpStyle=none;html=1;shadow=0;labelBackgroundColor=none;startArrow=none;startFill=0;jettySize=auto;orthogonalLoop=1;strokeColor=#12AAB5;strokeWidth=3;fontFamily=Helvetica;fontSize=14;fontColor=#FFFFFF;spacing=5;fontStyle=1;fillColor=#b0e3e6;" edge="1" parent="1" source="xNPvfq1fxMJgjm_zQKp6-45" target="xNPvfq1fxMJgjm_zQKp6-179">
          <mxGeometry relative="1" as="geometry">
            <mxPoint x="182" y="871" as="sourcePoint" />
            <mxPoint x="172" y="652.9999999999998" as="targetPoint" />
          </mxGeometry>
        </mxCell>
        <mxCell id="xNPvfq1fxMJgjm_zQKp6-182" value="" style="edgeStyle=none;rounded=1;jumpStyle=none;html=1;shadow=0;labelBackgroundColor=none;startArrow=none;startFill=0;jettySize=auto;orthogonalLoop=1;strokeColor=#12AAB5;strokeWidth=3;fontFamily=Helvetica;fontSize=14;fontColor=#FFFFFF;spacing=5;fontStyle=1;fillColor=#b0e3e6;exitX=0.5;exitY=1;exitDx=0;exitDy=0;entryX=0;entryY=0.5;entryDx=0;entryDy=0;" edge="1" parent="1" source="xNPvfq1fxMJgjm_zQKp6-45" target="xNPvfq1fxMJgjm_zQKp6-172">
          <mxGeometry relative="1" as="geometry">
            <mxPoint x="215.5" y="871" as="sourcePoint" />
            <mxPoint x="183" y="943" as="targetPoint" />
          </mxGeometry>
        </mxCell>
        <mxCell id="xNPvfq1fxMJgjm_zQKp6-183" value="" style="edgeStyle=none;rounded=1;jumpStyle=none;html=1;shadow=0;labelBackgroundColor=none;startArrow=none;startFill=0;jettySize=auto;orthogonalLoop=1;strokeColor=#12AAB5;strokeWidth=3;fontFamily=Helvetica;fontSize=14;fontColor=#FFFFFF;spacing=5;fontStyle=1;fillColor=#b0e3e6;exitX=0.5;exitY=0;exitDx=0;exitDy=0;entryX=1;entryY=0;entryDx=0;entryDy=0;" edge="1" parent="1" source="xNPvfq1fxMJgjm_zQKp6-39" target="xNPvfq1fxMJgjm_zQKp6-108">
          <mxGeometry relative="1" as="geometry">
            <mxPoint x="239.99999999999955" y="303" as="sourcePoint" />
            <mxPoint x="294" y="276" as="targetPoint" />
          </mxGeometry>
        </mxCell>
        <mxCell id="xNPvfq1fxMJgjm_zQKp6-184" value="Приходить" style="rounded=1;whiteSpace=wrap;html=1;shadow=0;fillColor=#fcf6d7;fontFamily=Helvetica;fontSize=14;fontColor=#000000;align=center;spacing=5;fontStyle=0;arcSize=7;perimeterSpacing=2;" vertex="1" parent="1">
          <mxGeometry x="247" y="161.5" width="84" height="58" as="geometry" />
        </mxCell>
        <mxCell id="xNPvfq1fxMJgjm_zQKp6-185" value="Обробляється" style="rounded=1;whiteSpace=wrap;html=1;shadow=0;fillColor=#fcf6d7;fontFamily=Helvetica;fontSize=14;fontColor=#000000;align=center;spacing=5;fontStyle=0;arcSize=7;perimeterSpacing=2;" vertex="1" parent="1">
          <mxGeometry x="346" y="160.5" width="110" height="59" as="geometry" />
        </mxCell>
        <mxCell id="xNPvfq1fxMJgjm_zQKp6-186" value="Виходить" style="rounded=1;whiteSpace=wrap;html=1;shadow=0;fillColor=#fcf6d7;fontFamily=Helvetica;fontSize=14;fontColor=#000000;align=center;spacing=5;fontStyle=0;arcSize=7;perimeterSpacing=2;" vertex="1" parent="1">
          <mxGeometry x="466.5" y="158.5" width="84" height="60" as="geometry" />
        </mxCell>
        <mxCell id="xNPvfq1fxMJgjm_zQKp6-187" value="" style="edgeStyle=none;rounded=1;jumpStyle=none;html=1;shadow=0;labelBackgroundColor=none;startArrow=none;startFill=0;jettySize=auto;orthogonalLoop=1;strokeColor=#12AAB5;strokeWidth=3;fontFamily=Helvetica;fontSize=14;fontColor=#FFFFFF;spacing=5;fontStyle=1;fillColor=#b0e3e6;exitX=0;exitY=0.25;exitDx=0;exitDy=0;entryX=0.5;entryY=1;entryDx=0;entryDy=0;" edge="1" parent="1" source="xNPvfq1fxMJgjm_zQKp6-26" target="xNPvfq1fxMJgjm_zQKp6-184">
          <mxGeometry relative="1" as="geometry">
            <mxPoint x="630.5" y="375" as="sourcePoint" />
            <mxPoint x="783.5" y="271.4999999999999" as="targetPoint" />
          </mxGeometry>
        </mxCell>
        <mxCell id="xNPvfq1fxMJgjm_zQKp6-188" value="" style="edgeStyle=none;rounded=1;jumpStyle=none;html=1;shadow=0;labelBackgroundColor=none;startArrow=none;startFill=0;jettySize=auto;orthogonalLoop=1;strokeColor=#12AAB5;strokeWidth=3;fontFamily=Helvetica;fontSize=14;fontColor=#FFFFFF;spacing=5;fontStyle=1;fillColor=#b0e3e6;exitX=0.5;exitY=0;exitDx=0;exitDy=0;entryX=0.5;entryY=1;entryDx=0;entryDy=0;" edge="1" parent="1" source="xNPvfq1fxMJgjm_zQKp6-26" target="xNPvfq1fxMJgjm_zQKp6-185">
          <mxGeometry relative="1" as="geometry">
            <mxPoint x="630.5" y="345.5000000000001" as="sourcePoint" />
            <mxPoint x="865.1925086139822" y="282.4999999999999" as="targetPoint" />
          </mxGeometry>
        </mxCell>
        <mxCell id="xNPvfq1fxMJgjm_zQKp6-189" value="Внутрішнє &#xa;задоволення" style="fontFamily=Helvetica;fontSize=14;" vertex="1" parent="1">
          <mxGeometry x="221" y="73" width="82" height="60" as="geometry" />
        </mxCell>
        <mxCell id="xNPvfq1fxMJgjm_zQKp6-190" value="" style="edgeStyle=none;rounded=1;jumpStyle=none;html=1;shadow=0;labelBackgroundColor=none;startArrow=none;startFill=0;jettySize=auto;orthogonalLoop=1;strokeColor=#12AAB5;strokeWidth=3;fontFamily=Helvetica;fontSize=14;fontColor=#FFFFFF;spacing=5;fontStyle=1;fillColor=#b0e3e6;entryX=0.5;entryY=1;entryDx=0;entryDy=0;" edge="1" parent="1" source="xNPvfq1fxMJgjm_zQKp6-184" target="xNPvfq1fxMJgjm_zQKp6-189">
          <mxGeometry relative="1" as="geometry">
            <mxPoint x="752" y="317.5" as="sourcePoint" />
            <mxPoint x="743.5" y="265.5" as="targetPoint" />
          </mxGeometry>
        </mxCell>
        <mxCell id="xNPvfq1fxMJgjm_zQKp6-191" value="Опанування &#xa;різних технік" style="fontFamily=Helvetica;fontSize=14;" vertex="1" parent="1">
          <mxGeometry x="321" y="74" width="82" height="60" as="geometry" />
        </mxCell>
        <mxCell id="xNPvfq1fxMJgjm_zQKp6-192" value="Вплив навкл.&#xa;середовища" style="fontFamily=Helvetica;fontSize=14;" vertex="1" parent="1">
          <mxGeometry x="421" y="74" width="82" height="60" as="geometry" />
        </mxCell>
        <mxCell id="xNPvfq1fxMJgjm_zQKp6-193" value="" style="edgeStyle=none;rounded=1;jumpStyle=none;html=1;shadow=0;labelBackgroundColor=none;startArrow=none;startFill=0;jettySize=auto;orthogonalLoop=1;strokeColor=#12AAB5;strokeWidth=3;fontFamily=Helvetica;fontSize=14;fontColor=#FFFFFF;spacing=5;fontStyle=1;fillColor=#b0e3e6;" edge="1" parent="1" source="xNPvfq1fxMJgjm_zQKp6-186" target="xNPvfq1fxMJgjm_zQKp6-192">
          <mxGeometry relative="1" as="geometry">
            <mxPoint x="751.5" y="288.5" as="sourcePoint" />
            <mxPoint x="354.5" y="141.5" as="targetPoint" />
          </mxGeometry>
        </mxCell>
        <mxCell id="xNPvfq1fxMJgjm_zQKp6-194" value="" style="edgeStyle=none;rounded=1;jumpStyle=none;html=1;shadow=0;labelBackgroundColor=none;startArrow=none;startFill=0;jettySize=auto;orthogonalLoop=1;strokeColor=#12AAB5;strokeWidth=3;fontFamily=Helvetica;fontSize=14;fontColor=#FFFFFF;spacing=5;fontStyle=1;fillColor=#b0e3e6;" edge="1" parent="1" source="xNPvfq1fxMJgjm_zQKp6-185" target="xNPvfq1fxMJgjm_zQKp6-191">
          <mxGeometry relative="1" as="geometry">
            <mxPoint x="923.5" y="298.5" as="sourcePoint" />
            <mxPoint x="948.5" y="298.5" as="targetPoint" />
          </mxGeometry>
        </mxCell>
        <mxCell id="xNPvfq1fxMJgjm_zQKp6-195" value="" style="edgeStyle=none;rounded=1;jumpStyle=none;html=1;shadow=0;labelBackgroundColor=none;startArrow=none;startFill=0;jettySize=auto;orthogonalLoop=1;strokeColor=#12AAB5;strokeWidth=3;fontFamily=Helvetica;fontSize=14;fontColor=#FFFFFF;spacing=5;fontStyle=1;fillColor=#b0e3e6;exitX=0.75;exitY=0;exitDx=0;exitDy=0;entryX=0.5;entryY=1;entryDx=0;entryDy=0;" edge="1" parent="1" source="xNPvfq1fxMJgjm_zQKp6-26" target="xNPvfq1fxMJgjm_zQKp6-186">
          <mxGeometry relative="1" as="geometry">
            <mxPoint x="664.5" y="345.5000000000001" as="sourcePoint" />
            <mxPoint x="701.5" y="294.5" as="targetPoint" />
          </mxGeometry>
        </mxCell>
        <mxCell id="xNPvfq1fxMJgjm_zQKp6-196" value="Приходить" style="rounded=1;whiteSpace=wrap;html=1;shadow=0;fillColor=#fcf6d7;fontFamily=Helvetica;fontSize=14;fontColor=#000000;align=center;spacing=5;fontStyle=0;arcSize=7;perimeterSpacing=2;" vertex="1" parent="1">
          <mxGeometry x="550" y="238" width="84" height="58" as="geometry" />
        </mxCell>
        <mxCell id="xNPvfq1fxMJgjm_zQKp6-197" value="Виходить" style="rounded=1;whiteSpace=wrap;html=1;shadow=0;fillColor=#fcf6d7;fontFamily=Helvetica;fontSize=14;fontColor=#000000;align=center;spacing=5;fontStyle=0;arcSize=7;perimeterSpacing=2;" vertex="1" parent="1">
          <mxGeometry x="729" y="158.5" width="84" height="60" as="geometry" />
        </mxCell>
        <mxCell id="xNPvfq1fxMJgjm_zQKp6-198" value="" style="edgeStyle=none;rounded=1;jumpStyle=none;html=1;shadow=0;labelBackgroundColor=none;startArrow=none;startFill=0;jettySize=auto;orthogonalLoop=1;strokeColor=#12AAB5;strokeWidth=3;fontFamily=Helvetica;fontSize=14;fontColor=#FFFFFF;spacing=5;fontStyle=1;fillColor=#b0e3e6;exitX=0;exitY=0.5;exitDx=0;exitDy=0;entryX=1;entryY=0.5;entryDx=0;entryDy=0;" edge="1" parent="1" target="xNPvfq1fxMJgjm_zQKp6-196">
          <mxGeometry relative="1" as="geometry">
            <mxPoint x="711" y="300" as="sourcePoint" />
            <mxPoint x="1113.5" y="274.4999999999999" as="targetPoint" />
          </mxGeometry>
        </mxCell>
        <mxCell id="xNPvfq1fxMJgjm_zQKp6-199" value="Внутрішнє &#xa;бажання" style="fontFamily=Helvetica;fontSize=14;" vertex="1" parent="1">
          <mxGeometry x="521" y="74" width="82" height="60" as="geometry" />
        </mxCell>
        <mxCell id="xNPvfq1fxMJgjm_zQKp6-200" value="" style="edgeStyle=none;rounded=1;jumpStyle=none;html=1;shadow=0;labelBackgroundColor=none;startArrow=none;startFill=0;jettySize=auto;orthogonalLoop=1;strokeColor=#12AAB5;strokeWidth=3;fontFamily=Helvetica;fontSize=14;fontColor=#FFFFFF;spacing=5;fontStyle=1;fillColor=#b0e3e6;entryX=0.5;entryY=1;entryDx=0;entryDy=0;exitX=0.5;exitY=0;exitDx=0;exitDy=0;" edge="1" parent="1" source="xNPvfq1fxMJgjm_zQKp6-196" target="xNPvfq1fxMJgjm_zQKp6-199">
          <mxGeometry relative="1" as="geometry">
            <mxPoint x="587.091093117409" y="226.50000000000023" as="sourcePoint" />
            <mxPoint x="1073.5" y="268.5" as="targetPoint" />
          </mxGeometry>
        </mxCell>
        <mxCell id="xNPvfq1fxMJgjm_zQKp6-201" value="Виставки &#xa;та виступи" style="fontFamily=Helvetica;fontSize=14;" vertex="1" parent="1">
          <mxGeometry x="729" y="74" width="82" height="60" as="geometry" />
        </mxCell>
        <mxCell id="xNPvfq1fxMJgjm_zQKp6-202" value="" style="edgeStyle=none;rounded=1;jumpStyle=none;html=1;shadow=0;labelBackgroundColor=none;startArrow=none;startFill=0;jettySize=auto;orthogonalLoop=1;strokeColor=#12AAB5;strokeWidth=3;fontFamily=Helvetica;fontSize=14;fontColor=#FFFFFF;spacing=5;fontStyle=1;fillColor=#b0e3e6;" edge="1" parent="1" source="xNPvfq1fxMJgjm_zQKp6-197" target="xNPvfq1fxMJgjm_zQKp6-201">
          <mxGeometry relative="1" as="geometry">
            <mxPoint x="1081.5" y="291.5" as="sourcePoint" />
            <mxPoint x="684.5" y="144.5" as="targetPoint" />
          </mxGeometry>
        </mxCell>
        <mxCell id="xNPvfq1fxMJgjm_zQKp6-203" value="" style="edgeStyle=none;rounded=1;jumpStyle=none;html=1;shadow=0;labelBackgroundColor=none;startArrow=none;startFill=0;jettySize=auto;orthogonalLoop=1;strokeColor=#12AAB5;strokeWidth=3;fontFamily=Helvetica;fontSize=14;fontColor=#FFFFFF;spacing=5;fontStyle=1;fillColor=#b0e3e6;exitX=0.5;exitY=0;exitDx=0;exitDy=0;entryX=0.5;entryY=1;entryDx=0;entryDy=0;" edge="1" parent="1" target="xNPvfq1fxMJgjm_zQKp6-197">
          <mxGeometry relative="1" as="geometry">
            <mxPoint x="753" y="268" as="sourcePoint" />
            <mxPoint x="1031.5" y="297.5" as="targetPoint" />
          </mxGeometry>
        </mxCell>
        <mxCell id="xNPvfq1fxMJgjm_zQKp6-204" value="Приходить" style="rounded=1;whiteSpace=wrap;html=1;shadow=0;fillColor=#fcf6d7;fontFamily=Helvetica;fontSize=14;fontColor=#000000;align=center;spacing=5;fontStyle=0;arcSize=7;perimeterSpacing=2;" vertex="1" parent="1">
          <mxGeometry x="845" y="160.5" width="84" height="58" as="geometry" />
        </mxCell>
        <mxCell id="xNPvfq1fxMJgjm_zQKp6-205" value="Обробляється" style="rounded=1;whiteSpace=wrap;html=1;shadow=0;fillColor=#fcf6d7;fontFamily=Helvetica;fontSize=14;fontColor=#000000;align=center;spacing=5;fontStyle=0;arcSize=7;perimeterSpacing=2;" vertex="1" parent="1">
          <mxGeometry x="949" y="158.5" width="110" height="59" as="geometry" />
        </mxCell>
        <mxCell id="xNPvfq1fxMJgjm_zQKp6-206" value="Виходить" style="rounded=1;whiteSpace=wrap;html=1;shadow=0;fillColor=#fcf6d7;fontFamily=Helvetica;fontSize=14;fontColor=#000000;align=center;spacing=5;fontStyle=0;arcSize=7;perimeterSpacing=2;" vertex="1" parent="1">
          <mxGeometry x="1024" y="238" width="84" height="60" as="geometry" />
        </mxCell>
        <mxCell id="xNPvfq1fxMJgjm_zQKp6-207" value="" style="edgeStyle=none;rounded=1;jumpStyle=none;html=1;shadow=0;labelBackgroundColor=none;startArrow=none;startFill=0;jettySize=auto;orthogonalLoop=1;strokeColor=#12AAB5;strokeWidth=3;fontFamily=Helvetica;fontSize=14;fontColor=#FFFFFF;spacing=5;fontStyle=1;fillColor=#b0e3e6;entryX=0.5;entryY=1;entryDx=0;entryDy=0;exitX=0.25;exitY=0;exitDx=0;exitDy=0;" edge="1" parent="1" source="xNPvfq1fxMJgjm_zQKp6-24" target="xNPvfq1fxMJgjm_zQKp6-204">
          <mxGeometry relative="1" as="geometry">
            <mxPoint x="900" y="290" as="sourcePoint" />
            <mxPoint x="906.4320000000002" y="-96.31100000000015" as="targetPoint" />
          </mxGeometry>
        </mxCell>
        <mxCell id="xNPvfq1fxMJgjm_zQKp6-208" value="" style="edgeStyle=none;rounded=1;jumpStyle=none;html=1;shadow=0;labelBackgroundColor=none;startArrow=none;startFill=0;jettySize=auto;orthogonalLoop=1;strokeColor=#12AAB5;strokeWidth=3;fontFamily=Helvetica;fontSize=14;fontColor=#FFFFFF;spacing=5;fontStyle=1;fillColor=#b0e3e6;exitX=0.75;exitY=0;exitDx=0;exitDy=0;entryX=0.5;entryY=1;entryDx=0;entryDy=0;" edge="1" parent="1" source="xNPvfq1fxMJgjm_zQKp6-24" target="xNPvfq1fxMJgjm_zQKp6-205">
          <mxGeometry relative="1" as="geometry">
            <mxPoint x="1358.5" y="45" as="sourcePoint" />
            <mxPoint x="1707.6925086139822" y="-37.500000000000114" as="targetPoint" />
          </mxGeometry>
        </mxCell>
        <mxCell id="xNPvfq1fxMJgjm_zQKp6-209" value="Вдохновлення" style="fontFamily=Helvetica;fontSize=14;" vertex="1" parent="1">
          <mxGeometry x="847" y="74" width="82" height="60" as="geometry" />
        </mxCell>
        <mxCell id="xNPvfq1fxMJgjm_zQKp6-210" value="" style="edgeStyle=none;rounded=1;jumpStyle=none;html=1;shadow=0;labelBackgroundColor=none;startArrow=none;startFill=0;jettySize=auto;orthogonalLoop=1;strokeColor=#12AAB5;strokeWidth=3;fontFamily=Helvetica;fontSize=14;fontColor=#FFFFFF;spacing=5;fontStyle=1;fillColor=#b0e3e6;entryX=0.5;entryY=1;entryDx=0;entryDy=0;" edge="1" parent="1" source="xNPvfq1fxMJgjm_zQKp6-204" target="xNPvfq1fxMJgjm_zQKp6-209">
          <mxGeometry relative="1" as="geometry">
            <mxPoint x="1594.5" y="-2.5" as="sourcePoint" />
            <mxPoint x="1586" y="-54.5" as="targetPoint" />
          </mxGeometry>
        </mxCell>
        <mxCell id="xNPvfq1fxMJgjm_zQKp6-211" value="Малювання" style="fontFamily=Helvetica;fontSize=14;" vertex="1" parent="1">
          <mxGeometry x="954" y="73" width="82" height="60" as="geometry" />
        </mxCell>
        <mxCell id="xNPvfq1fxMJgjm_zQKp6-212" value="Створення &#xa;худ. творів" style="fontFamily=Helvetica;fontSize=14;" vertex="1" parent="1">
          <mxGeometry x="1059" y="73" width="82" height="60" as="geometry" />
        </mxCell>
        <mxCell id="xNPvfq1fxMJgjm_zQKp6-213" value="" style="edgeStyle=none;rounded=1;jumpStyle=none;html=1;shadow=0;labelBackgroundColor=none;startArrow=none;startFill=0;jettySize=auto;orthogonalLoop=1;strokeColor=#12AAB5;strokeWidth=3;fontFamily=Helvetica;fontSize=14;fontColor=#FFFFFF;spacing=5;fontStyle=1;fillColor=#b0e3e6;" edge="1" parent="1" source="xNPvfq1fxMJgjm_zQKp6-206" target="xNPvfq1fxMJgjm_zQKp6-212">
          <mxGeometry relative="1" as="geometry">
            <mxPoint x="1594" y="-31.5" as="sourcePoint" />
            <mxPoint x="1197" y="-178.5" as="targetPoint" />
          </mxGeometry>
        </mxCell>
        <mxCell id="xNPvfq1fxMJgjm_zQKp6-214" value="" style="edgeStyle=none;rounded=1;jumpStyle=none;html=1;shadow=0;labelBackgroundColor=none;startArrow=none;startFill=0;jettySize=auto;orthogonalLoop=1;strokeColor=#12AAB5;strokeWidth=3;fontFamily=Helvetica;fontSize=14;fontColor=#FFFFFF;spacing=5;fontStyle=1;fillColor=#b0e3e6;" edge="1" parent="1" source="xNPvfq1fxMJgjm_zQKp6-205" target="xNPvfq1fxMJgjm_zQKp6-211">
          <mxGeometry relative="1" as="geometry">
            <mxPoint x="1766" y="-21.5" as="sourcePoint" />
            <mxPoint x="1791" y="-21.5" as="targetPoint" />
          </mxGeometry>
        </mxCell>
        <mxCell id="xNPvfq1fxMJgjm_zQKp6-215" value="Приходить" style="rounded=1;whiteSpace=wrap;html=1;shadow=0;fillColor=#fcf6d7;fontFamily=Helvetica;fontSize=14;fontColor=#000000;align=center;spacing=5;fontStyle=0;arcSize=7;perimeterSpacing=2;" vertex="1" parent="1">
          <mxGeometry x="1108" y="157" width="84" height="58" as="geometry" />
        </mxCell>
        <mxCell id="xNPvfq1fxMJgjm_zQKp6-216" value="Обробляється" style="rounded=1;whiteSpace=wrap;html=1;shadow=0;fillColor=#fcf6d7;fontFamily=Helvetica;fontSize=14;fontColor=#000000;align=center;spacing=5;fontStyle=0;arcSize=7;perimeterSpacing=2;" vertex="1" parent="1">
          <mxGeometry x="1207" y="161.5" width="110" height="59" as="geometry" />
        </mxCell>
        <mxCell id="xNPvfq1fxMJgjm_zQKp6-217" value="Виходить" style="rounded=1;whiteSpace=wrap;html=1;shadow=0;fillColor=#fcf6d7;fontFamily=Helvetica;fontSize=14;fontColor=#000000;align=center;spacing=5;fontStyle=0;arcSize=7;perimeterSpacing=2;" vertex="1" parent="1">
          <mxGeometry x="1331" y="159.5" width="84" height="60" as="geometry" />
        </mxCell>
        <mxCell id="xNPvfq1fxMJgjm_zQKp6-218" value="" style="edgeStyle=none;rounded=1;jumpStyle=none;html=1;shadow=0;labelBackgroundColor=none;startArrow=none;startFill=0;jettySize=auto;orthogonalLoop=1;strokeColor=#12AAB5;strokeWidth=3;fontFamily=Helvetica;fontSize=14;fontColor=#FFFFFF;spacing=5;fontStyle=1;fillColor=#b0e3e6;exitX=0.284;exitY=0.062;exitDx=0;exitDy=0;exitPerimeter=0;" edge="1" parent="1" source="xNPvfq1fxMJgjm_zQKp6-28" target="xNPvfq1fxMJgjm_zQKp6-215">
          <mxGeometry relative="1" as="geometry">
            <mxPoint x="1371" y="346.5" as="sourcePoint" />
            <mxPoint x="1768.5" y="275.9999999999999" as="targetPoint" />
          </mxGeometry>
        </mxCell>
        <mxCell id="xNPvfq1fxMJgjm_zQKp6-219" value="" style="edgeStyle=none;rounded=1;jumpStyle=none;html=1;shadow=0;labelBackgroundColor=none;startArrow=none;startFill=0;jettySize=auto;orthogonalLoop=1;strokeColor=#12AAB5;strokeWidth=3;fontFamily=Helvetica;fontSize=14;fontColor=#FFFFFF;spacing=5;fontStyle=1;fillColor=#b0e3e6;entryX=0.5;entryY=1;entryDx=0;entryDy=0;exitX=0.689;exitY=0.062;exitDx=0;exitDy=0;exitPerimeter=0;" edge="1" parent="1" source="xNPvfq1fxMJgjm_zQKp6-28" target="xNPvfq1fxMJgjm_zQKp6-216">
          <mxGeometry relative="1" as="geometry">
            <mxPoint x="1387.803149606299" y="314.5" as="sourcePoint" />
            <mxPoint x="1850.1925086139822" y="286.9999999999999" as="targetPoint" />
          </mxGeometry>
        </mxCell>
        <mxCell id="xNPvfq1fxMJgjm_zQKp6-220" value="Цікавість &#xa;мистецтвом" style="fontFamily=Helvetica;fontSize=14;" vertex="1" parent="1">
          <mxGeometry x="1161" y="73" width="82" height="60" as="geometry" />
        </mxCell>
        <mxCell id="xNPvfq1fxMJgjm_zQKp6-221" value="" style="edgeStyle=none;rounded=1;jumpStyle=none;html=1;shadow=0;labelBackgroundColor=none;startArrow=none;startFill=0;jettySize=auto;orthogonalLoop=1;strokeColor=#12AAB5;strokeWidth=3;fontFamily=Helvetica;fontSize=14;fontColor=#FFFFFF;spacing=5;fontStyle=1;fillColor=#b0e3e6;entryX=0.5;entryY=1;entryDx=0;entryDy=0;exitX=0.88;exitY=0.026;exitDx=0;exitDy=0;exitPerimeter=0;" edge="1" parent="1" source="xNPvfq1fxMJgjm_zQKp6-215" target="xNPvfq1fxMJgjm_zQKp6-220">
          <mxGeometry relative="1" as="geometry">
            <mxPoint x="1242.091093117409" y="228.00000000000023" as="sourcePoint" />
            <mxPoint x="1728.5" y="270" as="targetPoint" />
          </mxGeometry>
        </mxCell>
        <mxCell id="xNPvfq1fxMJgjm_zQKp6-222" value="Вивчення &#xa;мистецтва" style="fontFamily=Helvetica;fontSize=14;" vertex="1" parent="1">
          <mxGeometry x="1258" y="75.5" width="82" height="60" as="geometry" />
        </mxCell>
        <mxCell id="xNPvfq1fxMJgjm_zQKp6-223" value="Розвиток &#xa;худ. навичок" style="fontFamily=Helvetica;fontSize=14;" vertex="1" parent="1">
          <mxGeometry x="1360" y="73" width="82" height="60" as="geometry" />
        </mxCell>
        <mxCell id="xNPvfq1fxMJgjm_zQKp6-224" value="" style="edgeStyle=none;rounded=1;jumpStyle=none;html=1;shadow=0;labelBackgroundColor=none;startArrow=none;startFill=0;jettySize=auto;orthogonalLoop=1;strokeColor=#12AAB5;strokeWidth=3;fontFamily=Helvetica;fontSize=14;fontColor=#FFFFFF;spacing=5;fontStyle=1;fillColor=#b0e3e6;" edge="1" parent="1" source="xNPvfq1fxMJgjm_zQKp6-217" target="xNPvfq1fxMJgjm_zQKp6-223">
          <mxGeometry relative="1" as="geometry">
            <mxPoint x="1736.5" y="293" as="sourcePoint" />
            <mxPoint x="1339.5" y="146" as="targetPoint" />
          </mxGeometry>
        </mxCell>
        <mxCell id="xNPvfq1fxMJgjm_zQKp6-225" value="" style="edgeStyle=none;rounded=1;jumpStyle=none;html=1;shadow=0;labelBackgroundColor=none;startArrow=none;startFill=0;jettySize=auto;orthogonalLoop=1;strokeColor=#12AAB5;strokeWidth=3;fontFamily=Helvetica;fontSize=14;fontColor=#FFFFFF;spacing=5;fontStyle=1;fillColor=#b0e3e6;" edge="1" parent="1" source="xNPvfq1fxMJgjm_zQKp6-216" target="xNPvfq1fxMJgjm_zQKp6-222">
          <mxGeometry relative="1" as="geometry">
            <mxPoint x="1908.5" y="303" as="sourcePoint" />
            <mxPoint x="1933.5" y="303" as="targetPoint" />
          </mxGeometry>
        </mxCell>
        <mxCell id="xNPvfq1fxMJgjm_zQKp6-226" value="" style="edgeStyle=none;rounded=1;jumpStyle=none;html=1;shadow=0;labelBackgroundColor=none;startArrow=none;startFill=0;jettySize=auto;orthogonalLoop=1;strokeColor=#12AAB5;strokeWidth=3;fontFamily=Helvetica;fontSize=14;fontColor=#FFFFFF;spacing=5;fontStyle=1;fillColor=#b0e3e6;entryX=0.5;entryY=1;entryDx=0;entryDy=0;" edge="1" parent="1" source="xNPvfq1fxMJgjm_zQKp6-28" target="xNPvfq1fxMJgjm_zQKp6-217">
          <mxGeometry relative="1" as="geometry">
            <mxPoint x="1413" y="314.5" as="sourcePoint" />
            <mxPoint x="1686.5" y="299" as="targetPoint" />
          </mxGeometry>
        </mxCell>
        <mxCell id="xNPvfq1fxMJgjm_zQKp6-227" value="" style="edgeStyle=none;rounded=1;jumpStyle=none;html=1;shadow=0;labelBackgroundColor=none;startArrow=none;startFill=0;jettySize=auto;orthogonalLoop=1;strokeColor=#12AAB5;strokeWidth=3;fontFamily=Helvetica;fontSize=14;fontColor=#FFFFFF;spacing=5;fontStyle=1;fillColor=#b0e3e6;exitX=0.972;exitY=0.388;exitDx=0;exitDy=0;entryX=0;entryY=0.75;entryDx=0;entryDy=0;exitPerimeter=0;" edge="1" parent="1" source="xNPvfq1fxMJgjm_zQKp6-24" target="xNPvfq1fxMJgjm_zQKp6-206">
          <mxGeometry relative="1" as="geometry">
            <mxPoint x="941.2500000000005" y="322.9999999999998" as="sourcePoint" />
            <mxPoint x="1014" y="229.5" as="targetPoint" />
          </mxGeometry>
        </mxCell>
        <mxCell id="xNPvfq1fxMJgjm_zQKp6-228" value="Виставки &#xa;та галереї" style="fontFamily=Helvetica;fontSize=14;" vertex="1" parent="1">
          <mxGeometry x="620" y="75.5" width="82" height="60" as="geometry" />
        </mxCell>
        <mxCell id="xNPvfq1fxMJgjm_zQKp6-229" value="Де?" style="rounded=1;whiteSpace=wrap;html=1;shadow=0;labelBackgroundColor=none;strokeColor=none;strokeWidth=3;fillColor=#f5af58;fontFamily=Helvetica;fontSize=14;fontColor=#FFFFFF;align=center;spacing=5;arcSize=7;perimeterSpacing=2;" vertex="1" parent="1">
          <mxGeometry x="710" y="270" width="80" height="60" as="geometry" />
        </mxCell>
        <mxCell id="xNPvfq1fxMJgjm_zQKp6-230" value="" style="edgeStyle=none;rounded=1;jumpStyle=none;html=1;shadow=0;labelBackgroundColor=none;startArrow=none;startFill=0;jettySize=auto;orthogonalLoop=1;strokeColor=#12AAB5;strokeWidth=3;fontFamily=Helvetica;fontSize=14;fontColor=#FFFFFF;spacing=5;fontStyle=1;fillColor=#b0e3e6;exitX=0.155;exitY=0.078;exitDx=0;exitDy=0;exitPerimeter=0;entryX=0.75;entryY=1;entryDx=0;entryDy=0;" edge="1" parent="1" source="xNPvfq1fxMJgjm_zQKp6-229" target="xNPvfq1fxMJgjm_zQKp6-231">
          <mxGeometry relative="1" as="geometry">
            <mxPoint x="721" y="310" as="sourcePoint" />
            <mxPoint x="660" y="220" as="targetPoint" />
          </mxGeometry>
        </mxCell>
        <mxCell id="xNPvfq1fxMJgjm_zQKp6-231" value="Обробляється" style="rounded=1;whiteSpace=wrap;html=1;shadow=0;fillColor=#fcf6d7;fontFamily=Helvetica;fontSize=14;fontColor=#000000;align=center;spacing=5;fontStyle=0;arcSize=7;perimeterSpacing=2;" vertex="1" parent="1">
          <mxGeometry x="603" y="162.5" width="110" height="59" as="geometry" />
        </mxCell>
        <mxCell id="xNPvfq1fxMJgjm_zQKp6-232" value="" style="edgeStyle=none;rounded=1;jumpStyle=none;html=1;shadow=0;labelBackgroundColor=none;startArrow=none;startFill=0;jettySize=auto;orthogonalLoop=1;strokeColor=#12AAB5;strokeWidth=3;fontFamily=Helvetica;fontSize=14;fontColor=#FFFFFF;spacing=5;fontStyle=1;fillColor=#b0e3e6;entryX=0.5;entryY=1;entryDx=0;entryDy=0;" edge="1" parent="1" source="xNPvfq1fxMJgjm_zQKp6-231" target="xNPvfq1fxMJgjm_zQKp6-228">
          <mxGeometry relative="1" as="geometry">
            <mxPoint x="781" y="167" as="sourcePoint" />
            <mxPoint x="780" y="144" as="targetPoint" />
          </mxGeometry>
        </mxCell>
        <mxCell id="xNPvfq1fxMJgjm_zQKp6-233" value="" style="edgeStyle=none;rounded=0;jumpStyle=none;html=1;shadow=0;labelBackgroundColor=none;startArrow=none;startFill=0;endArrow=classic;endFill=1;jettySize=auto;orthogonalLoop=1;strokeColor=#F08705;strokeWidth=3;fontFamily=Helvetica;fontSize=14;fontColor=#FFFFFF;spacing=5;entryX=0.5;entryY=1;entryDx=0;entryDy=0;" edge="1" parent="1" source="xNPvfq1fxMJgjm_zQKp6-8" target="xNPvfq1fxMJgjm_zQKp6-229">
          <mxGeometry relative="1" as="geometry">
            <mxPoint x="884" y="369" as="sourcePoint" />
            <mxPoint x="901" y="342" as="targetPoint" />
          </mxGeometry>
        </mxCell>
      </root>
    </mxGraphModel>
  </diagram>
</mxfile>
